<svg width="108" height="89" viewBox="0 0 108 89" fill="none" xmlns="http://www.w3.org/2000/svg">
<g filter="url(#filter0_i)">
<path d="M107.807 82.5184L101.099 56.6806C100.994 56.2776 100.83 55.9013 100.622 55.5555C101.006 54.5311 101.216 53.4273 101.216 52.2774V9.68592C101.216 4.3453 96.7045 0 91.1579 0H16.8384C11.2914 0 6.77945 4.34506 6.77945 9.68592V52.2769C6.77945 53.427 6.9898 54.5309 7.37419 55.5553C7.1658 55.9013 7.0011 56.2771 6.89678 56.6801L0.134521 82.7264C-0.201997 84.0231 0.100648 85.3973 0.955073 86.4505C1.80925 87.5042 3.11998 88.1202 4.50851 88.1202H103.488H103.492C105.982 88.1202 108 86.1761 108 83.7789C108 83.3407 107.932 82.9174 107.807 82.5184ZM65.4226 81.3333H65.4187H42.5765C42.3128 81.3333 42.0625 81.2205 41.8939 81.0257C41.7247 80.8315 41.6538 80.5743 41.7007 80.324L43.4807 70.8115C43.557 70.4031 43.926 70.1067 44.3565 70.1067H63.6391C64.0696 70.1067 64.4386 70.4036 64.5144 70.8115L66.2797 80.2479C66.3006 80.3209 66.3119 80.3973 66.3119 80.4762C66.3126 80.9499 65.914 81.3333 65.4226 81.3333ZM92.4306 52.2774C92.4306 52.7723 92.1238 53.1985 91.6844 53.3923H16.3109C15.8711 53.199 15.564 52.7723 15.564 52.2774V9.68592C15.564 9.00969 16.1357 8.45967 16.8382 8.45967H91.1574C91.8592 8.45967 92.4309 9.00969 92.4309 9.68592L92.4306 52.2774Z" fill="#27BA81"/>
</g>
<path d="M56.4478 29.1882L59.2636 28.4487C59.821 28.3023 60.2182 27.8268 60.2454 27.2706C60.2734 26.7145 59.9258 26.2044 59.3858 26.007L46.4018 21.2646C45.9109 21.0855 45.3562 21.2001 44.9848 21.5575C44.6132 21.9151 44.4944 22.4491 44.6805 22.922L49.6052 35.4251C49.8104 35.9456 50.3401 36.2801 50.9174 36.2531C51.4952 36.2264 51.9888 35.8447 52.1408 35.3077L52.9088 32.5961L59.4786 38.9219C59.9997 39.4239 60.8443 39.4239 61.3657 38.9219L63.0173 37.3317C63.5384 36.8296 63.5384 36.0161 63.0173 35.514L56.4478 29.1882Z" fill="#27BA81"/>
<defs>
<filter id="filter0_i" x="0" y="0" width="108" height="92.1202" filterUnits="userSpaceOnUse" color-interpolation-filters="sRGB">
<feFlood flood-opacity="0" result="BackgroundImageFix"/>
<feBlend mode="normal" in="SourceGraphic" in2="BackgroundImageFix" result="shape"/>
<feColorMatrix in="SourceAlpha" type="matrix" values="0 0 0 0 0 0 0 0 0 0 0 0 0 0 0 0 0 0 127 0" result="hardAlpha"/>
<feOffset dy="4"/>
<feGaussianBlur stdDeviation="2"/>
<feComposite in2="hardAlpha" operator="arithmetic" k2="-1" k3="1"/>
<feColorMatrix type="matrix" values="0 0 0 0 0 0 0 0 0 0 0 0 0 0 0 0 0 0 0.25 0"/>
<feBlend mode="normal" in2="shape" result="effect1_innerShadow"/>
</filter>
</defs>
</svg>
