<svg width="265" height="76" viewBox="0 0 265 76" fill="none" xmlns="http://www.w3.org/2000/svg">
<g clip-path="url(#clip0)">
<path d="M113.408 26.6242V15.7848C113.408 13.2521 112.754 11.2771 111.445 9.85969C110.136 8.44229 108.047 7.73362 105.177 7.73362C103.615 7.73362 102.284 7.87301 101.182 8.15185C100.079 8.43069 99.0234 8.79084 98.0132 9.2323L99.3217 13.2753C100.171 12.95 100.975 12.7061 101.733 12.5434C102.513 12.3575 103.409 12.2646 104.419 12.2646C105.728 12.2646 106.715 12.555 107.381 13.1359C108.047 13.7168 108.38 14.5649 108.38 15.6802V15.9939C107.714 15.7615 107.025 15.5756 106.313 15.4362C105.624 15.2968 104.809 15.2271 103.868 15.2271C102.766 15.2271 101.756 15.3549 100.837 15.6105C99.9417 15.8429 99.1612 16.203 98.4953 16.691C97.8524 17.1789 97.3473 17.7946 96.9797 18.5382C96.6125 19.2817 96.4287 20.1647 96.4287 21.1871V21.2568C96.4287 22.1862 96.5895 23.0111 96.9111 23.7314C97.2554 24.4284 97.7146 25.0209 98.2886 25.5089C98.8626 25.9968 99.5285 26.3686 100.286 26.6242C101.067 26.8566 101.893 26.9728 102.766 26.9728C104.052 26.9728 105.142 26.7636 106.038 26.3454C106.933 25.9039 107.702 25.323 108.345 24.6027V26.6242H113.408ZM108.449 20.0369C108.449 21.0128 108.07 21.8028 107.312 22.4069C106.577 23.0111 105.59 23.3131 104.35 23.3131C103.501 23.3131 102.812 23.1156 102.284 22.7206C101.756 22.3256 101.492 21.7679 101.492 21.0476V20.9779C101.492 20.1415 101.813 19.5025 102.456 19.061C103.099 18.6195 103.983 18.3988 105.108 18.3988C105.751 18.3988 106.348 18.4685 106.899 18.6079C107.473 18.7241 107.989 18.8867 108.449 19.0959V20.0369ZM137.302 17.3183V17.2486C137.302 15.6918 137.061 14.3209 136.579 13.1359C136.12 11.9276 135.5 10.9169 134.719 10.1036C133.939 9.26715 133.043 8.63979 132.033 8.22156C131.023 7.80333 129.978 7.5942 128.899 7.5942C127.521 7.5942 126.373 7.88464 125.455 8.46555C124.559 9.0232 123.79 9.74349 123.147 10.6264V7.94272H117.912V32.2008H123.147V24.1845C123.767 24.928 124.525 25.5786 125.42 26.1363C126.339 26.6939 127.498 26.9728 128.899 26.9728C130.001 26.9728 131.057 26.7636 132.068 26.3454C133.078 25.9271 133.962 25.3114 134.719 24.4981C135.5 23.6616 136.12 22.6509 136.579 21.4659C137.061 20.2576 137.302 18.8751 137.302 17.3183ZM132.068 17.3183C132.068 18.1083 131.941 18.817 131.689 19.4444C131.459 20.0718 131.138 20.6178 130.724 21.0825C130.311 21.524 129.829 21.8725 129.278 22.1281C128.75 22.3605 128.176 22.4766 127.556 22.4766C126.936 22.4766 126.35 22.3605 125.799 22.1281C125.271 21.8725 124.801 21.524 124.387 21.0825C123.997 20.6178 123.676 20.0718 123.423 19.4444C123.193 18.7938 123.079 18.0851 123.079 17.3183V17.2486C123.079 16.4818 123.193 15.7848 123.423 15.1574C123.676 14.5068 123.997 13.9608 124.387 13.5193C124.801 13.0546 125.271 12.7061 125.799 12.4737C126.35 12.2181 126.936 12.0903 127.556 12.0903C128.176 12.0903 128.75 12.2181 129.278 12.4737C129.829 12.7061 130.311 13.0546 130.724 13.5193C131.138 13.9608 131.459 14.5068 131.689 15.1574C131.941 15.7848 132.068 16.4818 132.068 17.2486V17.3183ZM152.277 13.1359V7.5942C150.716 7.52449 149.476 7.87301 148.558 8.63979C147.639 9.40657 146.916 10.4289 146.388 11.7069V7.94272H141.153V26.6242H146.388V19.7232C146.388 17.4694 146.882 15.808 147.869 14.7392C148.879 13.6703 150.257 13.1359 152.002 13.1359H152.277ZM172.768 17.8063V17.7366C172.768 16.4121 172.585 15.1458 172.217 13.9375C171.873 12.7061 171.322 11.6256 170.564 10.6961C169.83 9.7435 168.9 8.98834 167.775 8.43069C166.65 7.87301 165.318 7.5942 163.78 7.5942C162.425 7.5942 161.185 7.84979 160.06 8.36098C158.958 8.87215 158.005 9.56922 157.201 10.4522C156.398 11.3351 155.766 12.3691 155.307 13.5541C154.871 14.7392 154.653 15.9939 154.653 17.3183V17.388C154.653 18.8286 154.894 20.1415 155.376 21.3265C155.858 22.4883 156.524 23.499 157.374 24.3587C158.246 25.2184 159.268 25.8807 160.439 26.3454C161.633 26.8101 162.918 27.0424 164.296 27.0424C165.972 27.0424 167.43 26.7404 168.67 26.1363C169.91 25.5089 170.966 24.6492 171.839 23.5571L168.842 20.8734C168.108 21.5472 167.396 22.0352 166.707 22.3372C166.018 22.6393 165.237 22.7903 164.365 22.7903C163.194 22.7903 162.207 22.4883 161.403 21.8841C160.622 21.2568 160.106 20.339 159.853 19.1307H172.7C172.723 18.8751 172.734 18.6544 172.734 18.4685C172.757 18.2826 172.768 18.0619 172.768 17.8063ZM167.671 15.8196H159.784C159.991 14.6114 160.427 13.6471 161.093 12.9268C161.782 12.2065 162.677 11.8463 163.78 11.8463C164.882 11.8463 165.766 12.2181 166.431 12.9616C167.097 13.6819 167.511 14.6346 167.671 15.8196ZM193.58 26.6242V14.5301C193.58 12.3691 193.029 10.6729 191.927 9.44143C190.848 8.20993 189.309 7.5942 187.312 7.5942C186.646 7.5942 186.049 7.67551 185.521 7.83816C184.993 8.00084 184.511 8.22156 184.074 8.50037C183.638 8.77921 183.236 9.10451 182.869 9.47628C182.525 9.82484 182.203 10.1966 181.905 10.5916V7.94272H176.67V26.6242H181.905V16.203C181.905 14.9483 182.192 14.0072 182.766 13.3799C183.363 12.7293 184.166 12.404 185.177 12.404C186.187 12.404 186.967 12.7293 187.519 13.3799C188.07 14.0072 188.345 14.9483 188.345 16.203V26.6242H193.58ZM216.692 26.6242V1.18115H211.457V10.3825C210.837 9.63893 210.067 8.98834 209.149 8.43069C208.254 7.87301 207.106 7.5942 205.705 7.5942C204.603 7.5942 203.547 7.80333 202.536 8.22156C201.526 8.63979 200.631 9.26715 199.85 10.1036C199.092 10.9169 198.473 11.9276 197.99 13.1359C197.531 14.3209 197.302 15.6918 197.302 17.2486V17.3183C197.302 18.8751 197.531 20.2576 197.99 21.4659C198.473 22.6509 199.104 23.6616 199.885 24.4981C200.665 25.3114 201.561 25.9271 202.571 26.3454C203.581 26.7636 204.626 26.9728 205.705 26.9728C207.083 26.9728 208.219 26.6939 209.115 26.1363C210.033 25.5554 210.814 24.8234 211.457 23.9405V26.6242H216.692ZM211.525 17.3183C211.525 18.0851 211.399 18.7938 211.147 19.4444C210.917 20.0718 210.596 20.6178 210.182 21.0825C209.792 21.524 209.321 21.8725 208.77 22.1281C208.242 22.3605 207.668 22.4766 207.048 22.4766C206.428 22.4766 205.843 22.3605 205.292 22.1281C204.764 21.8725 204.293 21.524 203.88 21.0825C203.466 20.6178 203.133 20.0718 202.881 19.4444C202.651 18.7938 202.536 18.0851 202.536 17.3183V17.2486C202.536 16.4586 202.651 15.7499 202.881 15.1226C203.133 14.4952 203.466 13.9608 203.88 13.5193C204.293 13.0546 204.764 12.7061 205.292 12.4737C205.843 12.2181 206.428 12.0903 207.048 12.0903C207.668 12.0903 208.242 12.2181 208.77 12.4737C209.321 12.7061 209.792 13.0546 210.182 13.5193C210.596 13.9608 210.917 14.5068 211.147 15.1574C211.399 15.7848 211.525 16.4818 211.525 17.2486V17.3183ZM238.589 17.8063V17.7366C238.589 16.4121 238.405 15.1458 238.038 13.9375C237.693 12.7061 237.142 11.6256 236.385 10.6961C235.65 9.7435 234.72 8.98834 233.595 8.43069C232.47 7.87301 231.138 7.5942 229.6 7.5942C228.245 7.5942 227.005 7.84979 225.88 8.36098C224.778 8.87215 223.825 9.56922 223.022 10.4522C222.218 11.3351 221.587 12.3691 221.128 13.5541C220.691 14.7392 220.473 15.9939 220.473 17.3183V17.388C220.473 18.8286 220.714 20.1415 221.197 21.3265C221.679 22.4883 222.345 23.499 223.194 24.3587C224.067 25.2184 225.088 25.8807 226.259 26.3454C227.453 26.8101 228.739 27.0424 230.117 27.0424C231.793 27.0424 233.251 26.7404 234.491 26.1363C235.73 25.5089 236.787 24.6492 237.659 23.5571L234.663 20.8734C233.928 21.5472 233.216 22.0352 232.527 22.3372C231.839 22.6393 231.058 22.7903 230.185 22.7903C229.015 22.7903 228.027 22.4883 227.224 21.8841C226.443 21.2568 225.926 20.339 225.674 19.1307H238.52C238.543 18.8751 238.555 18.6544 238.555 18.4685C238.577 18.2826 238.589 18.0619 238.589 17.8063ZM233.492 15.8196H225.605C225.812 14.6114 226.248 13.6471 226.914 12.9268C227.602 12.2065 228.498 11.8463 229.6 11.8463C230.702 11.8463 231.586 12.2181 232.252 12.9616C232.918 13.6819 233.331 14.6346 233.492 15.8196ZM253.615 13.1359V7.5942C252.053 7.52449 250.813 7.87301 249.895 8.63979C248.977 9.40657 248.253 10.4289 247.725 11.7069V7.94272H242.49V26.6242H247.725V19.7232C247.725 17.4694 248.219 15.808 249.206 14.7392C250.216 13.6703 251.594 13.1359 253.339 13.1359H253.615ZM114.751 60.4049V60.3352C114.751 59.0107 114.567 57.7446 114.2 56.5361C113.856 55.3047 113.305 54.2244 112.547 53.295C111.812 52.3424 110.882 51.587 109.757 51.0294C108.632 50.4719 107.301 50.1931 105.762 50.1931C104.408 50.1931 103.168 50.4486 102.043 50.9596C100.941 51.471 99.9876 52.1681 99.1842 53.0509C98.3805 53.9338 97.7492 54.968 97.2897 56.1529C96.8536 57.3377 96.6355 58.5927 96.6355 59.9172V59.9866C96.6355 61.4273 96.8765 62.7403 97.3586 63.9252C97.8407 65.0871 98.5066 66.0977 99.3563 66.9573C100.229 67.8172 101.25 68.4793 102.421 68.9441C103.615 69.409 104.901 69.6412 106.279 69.6412C107.955 69.6412 109.413 69.3392 110.653 68.7351C111.893 68.1075 112.949 67.2479 113.821 66.1557L110.825 63.4721C110.09 64.146 109.378 64.6337 108.69 64.9361C108.001 65.2381 107.22 65.3892 106.348 65.3892C105.177 65.3892 104.189 65.0871 103.386 64.4827C102.605 63.8554 102.089 62.9378 101.836 61.7294H114.682C114.705 61.4738 114.717 61.2531 114.717 61.0673C114.74 60.8812 114.751 60.6604 114.751 60.4049ZM109.654 58.4184H101.767C101.974 57.21 102.41 56.2459 103.076 55.5255C103.765 54.8052 104.66 54.4452 105.762 54.4452C106.864 54.4452 107.748 54.817 108.414 55.5603C109.08 56.2806 109.493 57.2332 109.654 58.4184ZM107.656 48.4851L112.065 44.3028L107.553 42.3159L103.661 48.4851H107.656ZM145.234 66.2255L142.169 63.0888C141.526 63.6929 140.871 64.1807 140.205 64.5525C139.563 64.9011 138.805 65.0753 137.932 65.0753C137.221 65.0753 136.578 64.9476 136.004 64.6921C135.43 64.4133 134.936 64.0415 134.523 63.5766C134.11 63.1121 133.788 62.566 133.558 61.9387C133.352 61.311 133.249 60.6375 133.249 59.9172V59.8474C133.249 59.1503 133.352 58.4997 133.558 57.8956C133.788 57.2683 134.098 56.7222 134.488 56.2574C134.902 55.7928 135.372 55.4325 135.9 55.177C136.451 54.8982 137.06 54.7587 137.726 54.7587C138.667 54.7587 139.448 54.9447 140.068 55.3165C140.711 55.688 141.331 56.1876 141.928 56.8152L145.13 53.3297C144.258 52.3538 143.248 51.587 142.1 51.0294C140.952 50.4719 139.505 50.1931 137.76 50.1931C136.337 50.1931 135.028 50.4486 133.834 50.9596C132.663 51.471 131.653 52.1681 130.803 53.0509C129.954 53.9338 129.288 54.968 128.806 56.1529C128.324 57.3377 128.082 58.5927 128.082 59.9172V59.9866C128.082 61.311 128.324 62.566 128.806 63.7509C129.288 64.9128 129.954 65.9352 130.803 66.8181C131.653 67.6777 132.663 68.3633 133.834 68.8743C135.028 69.3857 136.314 69.6412 137.691 69.6412C139.528 69.6412 141.021 69.3274 142.169 68.7001C143.317 68.0495 144.338 67.2246 145.234 66.2255ZM159.778 55.7345V50.1931C158.216 50.1233 156.977 50.4719 156.058 51.2384C155.14 52.0053 154.416 53.0277 153.888 54.3056V50.5413H148.653V69.2229H153.888V62.322C153.888 60.0682 154.382 58.4067 155.369 57.3377C156.38 56.2692 157.757 55.7345 159.502 55.7345H159.778ZM180.269 60.4049V60.3352C180.269 59.0107 180.085 57.7446 179.718 56.5361C179.373 55.3047 178.822 54.2244 178.065 53.295C177.33 52.3424 176.4 51.587 175.275 51.0294C174.15 50.4719 172.818 50.1931 171.28 50.1931C169.925 50.1931 168.685 50.4486 167.56 50.9596C166.458 51.471 165.505 52.1681 164.702 53.0509C163.898 53.9338 163.267 54.968 162.808 56.1529C162.371 57.3377 162.153 58.5927 162.153 59.9172V59.9866C162.153 61.4273 162.394 62.7403 162.876 63.9252C163.359 65.0871 164.024 66.0977 164.874 66.9573C165.746 67.8172 166.768 68.4793 167.939 68.9441C169.133 69.409 170.419 69.6412 171.796 69.6412C173.473 69.6412 174.931 69.3392 176.17 68.7351C177.41 68.1075 178.466 67.2479 179.339 66.1557L176.343 63.4721C175.608 64.146 174.896 64.6337 174.207 64.9361C173.519 65.2381 172.738 65.3892 171.865 65.3892C170.694 65.3892 169.707 65.0871 168.903 64.4827C168.123 63.8554 167.606 62.9378 167.354 61.7294H180.2C180.223 61.4738 180.234 61.2531 180.234 61.0673C180.257 60.8812 180.269 60.6604 180.269 60.4049ZM175.172 58.4184H167.285C167.491 57.21 167.928 56.2459 168.594 55.5255C169.282 54.8052 170.178 54.4452 171.28 54.4452C172.382 54.4452 173.266 54.817 173.932 55.5603C174.598 56.2806 175.011 57.2332 175.172 58.4184ZM197.705 63.5419V63.4721C197.705 62.6125 197.533 61.8804 197.189 61.2763C196.844 60.6722 196.408 60.1609 195.88 59.7429C195.352 59.3246 194.755 58.976 194.089 58.6972C193.423 58.3952 192.769 58.1397 192.126 57.9303C191.621 57.7679 191.139 57.605 190.679 57.4426C190.243 57.2798 189.853 57.1173 189.508 56.9545C189.164 56.7687 188.889 56.5827 188.682 56.3969C188.475 56.1876 188.372 55.9553 188.372 55.6998V55.63C188.372 55.2582 188.533 54.9562 188.854 54.7239C189.176 54.4684 189.658 54.3403 190.301 54.3403C190.966 54.3403 191.736 54.5031 192.608 54.8284C193.481 55.1305 194.376 55.5488 195.294 56.0831L197.292 52.4236C196.282 51.7498 195.168 51.227 193.951 50.8551C192.757 50.4601 191.575 50.2625 190.404 50.2625C189.463 50.2625 188.579 50.3903 187.752 50.6461C186.948 50.9017 186.237 51.2849 185.617 51.7963C185.02 52.3073 184.538 52.9347 184.17 53.6783C183.826 54.3986 183.654 55.235 183.654 56.1876V56.2574C183.654 57.1635 183.814 57.9303 184.136 58.5577C184.48 59.185 184.916 59.7196 185.444 60.1609C185.973 60.5792 186.558 60.9278 187.201 61.2065C187.867 61.4624 188.521 61.6828 189.164 61.8689C189.669 62.0314 190.151 62.1824 190.611 62.322C191.07 62.4615 191.472 62.6125 191.816 62.775C192.183 62.9146 192.47 63.0888 192.677 63.2978C192.884 63.5068 192.987 63.7509 192.987 64.0297V64.0994C192.987 64.5178 192.803 64.8545 192.436 65.1104C192.091 65.3659 191.54 65.4937 190.783 65.4937C189.91 65.4937 188.969 65.3076 187.959 64.9361C186.971 64.5643 185.973 64.0064 184.962 63.2631L182.724 66.7483C183.964 67.7242 185.261 68.4445 186.615 68.9094C187.993 69.3507 189.336 69.5714 190.645 69.5714C191.632 69.5714 192.551 69.4552 193.4 69.2229C194.273 68.9674 195.03 68.5956 195.673 68.1075C196.316 67.6197 196.81 67.0038 197.154 66.2605C197.522 65.4937 197.705 64.5876 197.705 63.5419ZM217.714 66.2255L214.649 63.0888C214.006 63.6929 213.351 64.1807 212.685 64.5525C212.043 64.9011 211.285 65.0753 210.412 65.0753C209.701 65.0753 209.058 64.9476 208.484 64.6921C207.91 64.4133 207.416 64.0415 207.003 63.5766C206.589 63.1121 206.268 62.566 206.038 61.9387C205.832 61.311 205.728 60.6375 205.728 59.9172V59.8474C205.728 59.1503 205.832 58.4997 206.038 57.8956C206.268 57.2683 206.578 56.7222 206.968 56.2574C207.382 55.7928 207.852 55.4325 208.38 55.177C208.931 54.8982 209.54 54.7587 210.206 54.7587C211.147 54.7587 211.928 54.9447 212.548 55.3165C213.191 55.688 213.81 56.1876 214.407 56.8152L217.61 53.3297C216.738 52.3538 215.728 51.587 214.58 51.0294C213.432 50.4719 211.985 50.1931 210.24 50.1931C208.817 50.1931 207.508 50.4486 206.314 50.9596C205.143 51.471 204.133 52.1681 203.283 53.0509C202.434 53.9338 201.768 54.968 201.286 56.1529C200.803 57.3377 200.562 58.5927 200.562 59.9172V59.9866C200.562 61.311 200.803 62.566 201.286 63.7509C201.768 64.9128 202.434 65.9352 203.283 66.8181C204.133 67.6777 205.143 68.3633 206.314 68.8743C207.508 69.3857 208.794 69.6412 210.171 69.6412C212.008 69.6412 213.501 69.3274 214.649 68.7001C215.797 68.0495 216.818 67.2246 217.714 66.2255ZM238.353 60.4049V60.3352C238.353 59.0107 238.169 57.7446 237.802 56.5361C237.458 55.3047 236.907 54.2244 236.149 53.295C235.414 52.3424 234.484 51.587 233.359 51.0294C232.234 50.4719 230.902 50.1931 229.364 50.1931C228.01 50.1931 226.77 50.4486 225.645 50.9596C224.542 51.471 223.59 52.1681 222.786 53.0509C221.982 53.9338 221.351 54.968 220.892 56.1529C220.456 57.3377 220.237 58.5927 220.237 59.9172V59.9866C220.237 61.4273 220.479 62.7403 220.961 63.9252C221.443 65.0871 222.109 66.0977 222.958 66.9573C223.831 67.8172 224.852 68.4793 226.023 68.9441C227.217 69.409 228.503 69.6412 229.881 69.6412C231.557 69.6412 233.015 69.3392 234.255 68.7351C235.495 68.1075 236.551 67.2479 237.423 66.1557L234.427 63.4721C233.692 64.146 232.98 64.6337 232.292 64.9361C231.603 65.2381 230.822 65.3892 229.95 65.3892C228.779 65.3892 227.791 65.0871 226.988 64.4827C226.207 63.8554 225.691 62.9378 225.438 61.7294H238.284C238.307 61.4738 238.319 61.2531 238.319 61.0673C238.342 60.8812 238.353 60.6604 238.353 60.4049ZM233.256 58.4184H225.369C225.576 57.21 226.012 56.2459 226.678 55.5255C227.367 54.8052 228.262 54.4452 229.364 54.4452C230.466 54.4452 231.35 54.817 232.016 55.5603C232.682 56.2806 233.095 57.2332 233.256 58.4184ZM253.379 55.7345V50.1931C251.818 50.1233 250.578 50.4719 249.66 51.2384C248.741 52.0053 248.018 53.0277 247.49 54.3056V50.5413H242.255V69.2229H247.49V62.322C247.49 60.0682 247.984 58.4067 248.971 57.3377C249.981 56.2692 251.359 55.7345 253.104 55.7345H253.379Z" fill="#242424"/>
<g filter="url(#filter0_d)">
<path d="M41.1366 29.5286C41.1366 22.8526 38.516 16.45 33.8512 11.7293C29.1866 7.00873 22.8599 4.35669 16.263 4.35669H3.82617V12.7473C3.82617 19.4234 6.44683 25.826 11.1115 30.5466C15.7762 35.2673 22.1029 37.9194 28.6998 37.9194H41.1366" stroke="#00E88F" stroke-width="15" stroke-linecap="round" stroke-linejoin="round"/>
</g>
<g filter="url(#filter1_d)">
<path d="M41.1377 46.3098C41.1377 39.6339 43.7582 33.2312 48.4228 28.5106C53.0876 23.7899 59.4146 21.1379 66.0114 21.1379H78.4483V25.3333C78.4483 32.0093 75.8274 38.412 71.1633 43.1325C66.4984 47.8531 60.1714 50.5052 53.5746 50.5052H41.1377" stroke="#00E88F" stroke-width="15" stroke-linecap="round" stroke-linejoin="round"/>
</g>
<g filter="url(#filter2_d)">
<path d="M41.1377 71.4822V29.5286" stroke="#00E88F" stroke-width="15" stroke-linecap="round" stroke-linejoin="round"/>
</g>
</g>
<defs>
<filter id="filter0_d" x="-7.67383" y="-3.14331" width="60.3104" height="56.5627" filterUnits="userSpaceOnUse" color-interpolation-filters="sRGB">
<feFlood flood-opacity="0" result="BackgroundImageFix"/>
<feColorMatrix in="SourceAlpha" type="matrix" values="0 0 0 0 0 0 0 0 0 0 0 0 0 0 0 0 0 0 127 0"/>
<feOffset dy="4"/>
<feGaussianBlur stdDeviation="2"/>
<feColorMatrix type="matrix" values="0 0 0 0 0 0 0 0 0 0 0 0 0 0 0 0 0 0 0.25 0"/>
<feBlend mode="normal" in2="BackgroundImageFix" result="effect1_dropShadow"/>
<feBlend mode="normal" in="SourceGraphic" in2="effect1_dropShadow" result="shape"/>
</filter>
<filter id="filter1_d" x="29.6377" y="13.6379" width="60.3106" height="52.3673" filterUnits="userSpaceOnUse" color-interpolation-filters="sRGB">
<feFlood flood-opacity="0" result="BackgroundImageFix"/>
<feColorMatrix in="SourceAlpha" type="matrix" values="0 0 0 0 0 0 0 0 0 0 0 0 0 0 0 0 0 0 127 0"/>
<feOffset dy="4"/>
<feGaussianBlur stdDeviation="2"/>
<feColorMatrix type="matrix" values="0 0 0 0 0 0 0 0 0 0 0 0 0 0 0 0 0 0 0.25 0"/>
<feBlend mode="normal" in2="BackgroundImageFix" result="effect1_dropShadow"/>
<feBlend mode="normal" in="SourceGraphic" in2="effect1_dropShadow" result="shape"/>
</filter>
<filter id="filter2_d" x="29.6377" y="22.0286" width="23" height="64.9536" filterUnits="userSpaceOnUse" color-interpolation-filters="sRGB">
<feFlood flood-opacity="0" result="BackgroundImageFix"/>
<feColorMatrix in="SourceAlpha" type="matrix" values="0 0 0 0 0 0 0 0 0 0 0 0 0 0 0 0 0 0 127 0"/>
<feOffset dy="4"/>
<feGaussianBlur stdDeviation="2"/>
<feColorMatrix type="matrix" values="0 0 0 0 0 0 0 0 0 0 0 0 0 0 0 0 0 0 0.25 0"/>
<feBlend mode="normal" in2="BackgroundImageFix" result="effect1_dropShadow"/>
<feBlend mode="normal" in="SourceGraphic" in2="effect1_dropShadow" result="shape"/>
</filter>
<clipPath id="clip0">
<rect width="265" height="76" fill="white"/>
</clipPath>
</defs>
</svg>
