<svg width="161" height="141" viewBox="0 0 161 141" fill="none" xmlns="http://www.w3.org/2000/svg">
<g clip-path="url(#clip0)">
<path d="M77.3094 68.6366L77.3108 68.638C79.069 70.4693 81.9291 70.4733 83.7188 68.6363C83.7191 68.636 83.7193 68.6358 83.7196 68.6355L114.157 37.1873C122.793 28.248 122.299 13.4355 112.627 5.19897L112.627 5.19851C104.242 -1.96312 91.7105 -0.697919 83.99 7.28639L83.9892 7.28725L80.8586 10.5093L80.4999 10.8785L80.1413 10.5092L77.0387 7.31471L77.0374 7.31332C69.3169 -0.697905 56.786 -1.963 48.4011 5.19852C38.7566 13.4356 38.2355 28.2484 46.8704 37.187L77.3094 68.6366ZM77.3094 68.6366L46.8707 37.1873L77.3094 68.6366ZM157.677 90.7286L157.676 90.7275C154.585 87.9658 149.716 88.1214 146.413 90.7461L146.411 90.7474L120.586 111.098C120.585 111.098 120.585 111.098 120.585 111.098C117.336 113.676 113.285 115.061 109.094 115.061H76.0278C73.2989 115.061 71.0555 112.862 71.0555 110.155C71.0555 107.449 73.2989 105.249 76.0278 105.249H97.9137C102.156 105.249 106.049 102.384 106.728 98.341C107.597 93.1521 103.545 88.624 98.3889 88.624H53.6667C46.2333 88.624 39.048 91.1465 33.2667 95.7574L157.677 90.7286ZM157.677 90.7286C161.661 94.2635 161.344 100.285 157.337 103.428L157.336 103.429L115.074 136.75C111.977 139.186 108.145 140.499 104.203 140.499H4.47222C2.28161 140.499 0.5 138.733 0.5 136.593V110.155C0.5 108.015 2.28161 106.249 4.47222 106.249H19.9573H20.1325L20.2694 106.14L33.2665 95.7576L157.677 90.7286Z" fill="#642E3D" stroke="#242424"/>
</g>
<defs>
<clipPath id="clip0">
<rect width="161" height="141" fill="white"/>
</clipPath>
</defs>
</svg>
