<svg width="195" height="86" viewBox="0 0 195 86" fill="none" xmlns="http://www.w3.org/2000/svg">
<path d="M94.7219 37.0951V31.0902C94.7219 29.6871 94.3471 28.593 93.5977 27.8078C92.8485 27.0226 91.6521 26.63 90.0088 26.63C89.1149 26.63 88.3524 26.7072 87.7213 26.8617C87.0903 27.0161 86.4856 27.2157 85.9072 27.4602L86.6564 29.7C87.143 29.5198 87.603 29.3846 88.0368 29.2945C88.4839 29.1915 88.9965 29.1401 89.5751 29.1401C90.3243 29.1401 90.8897 29.301 91.2708 29.6228C91.6521 29.9446 91.8427 30.4144 91.8427 31.0323V31.2061C91.4615 31.0773 91.0672 30.9743 90.6596 30.8971C90.2652 30.8199 89.7985 30.7813 89.2596 30.7813C88.6284 30.7813 88.05 30.8521 87.5242 30.9937C87.0114 31.1224 86.5646 31.3219 86.1833 31.5922C85.8152 31.8625 85.526 32.2036 85.3155 32.6156C85.1052 33.0275 85 33.5166 85 34.083V34.1216C85 34.6365 85.0921 35.0935 85.2762 35.4925C85.4733 35.8787 85.7362 36.2069 86.0649 36.4772C86.3936 36.7475 86.7748 36.9535 87.2087 37.0951C87.6556 37.2238 88.1289 37.2882 88.6284 37.2882C89.3646 37.2882 89.9892 37.1723 90.5018 36.9406C91.0146 36.6961 91.455 36.3742 91.8231 35.9752V37.0951H94.7219ZM91.8822 33.4458C91.8822 33.9864 91.6652 34.4241 91.2315 34.7588C90.8108 35.0935 90.2456 35.2608 89.5356 35.2608C89.0491 35.2608 88.6547 35.1514 88.3524 34.9326C88.05 34.7137 87.8988 34.4048 87.8988 34.0058V33.9671C87.8988 33.5038 88.083 33.1498 88.4509 32.9052C88.819 32.6606 89.3252 32.5383 89.9693 32.5383C90.3375 32.5383 90.6793 32.5769 90.9948 32.6542C91.3234 32.7185 91.6193 32.8086 91.8822 32.9245V33.4458ZM108.403 31.9398V31.9012C108.403 31.0387 108.265 30.2792 107.989 29.6228C107.726 28.9534 107.371 28.3935 106.924 27.9429C106.477 27.4795 105.964 27.132 105.386 26.9003C104.808 26.6686 104.209 26.5527 103.592 26.5527C102.803 26.5527 102.145 26.7136 101.62 27.0355C101.107 27.3444 100.666 27.7434 100.298 28.2326V26.7458H97.301V40.1844H100.298V35.7435C100.653 36.1554 101.087 36.5159 101.6 36.8248C102.126 37.1337 102.79 37.2882 103.592 37.2882C104.223 37.2882 104.827 37.1723 105.406 36.9406C105.984 36.7089 106.49 36.3678 106.924 35.9173C107.371 35.4539 107.726 34.8939 107.989 34.2375C108.265 33.5681 108.403 32.8022 108.403 31.9398ZM105.406 31.9398C105.406 32.3774 105.333 32.77 105.189 33.1176C105.057 33.4651 104.873 33.7676 104.637 34.0251C104.4 34.2696 104.124 34.4627 103.808 34.6043C103.506 34.7331 103.177 34.7974 102.822 34.7974C102.467 34.7974 102.132 34.7331 101.817 34.6043C101.514 34.4627 101.245 34.2696 101.008 34.0251C100.785 33.7676 100.601 33.4651 100.456 33.1176C100.325 32.7572 100.259 32.3646 100.259 31.9398V31.9012C100.259 31.4764 100.325 31.0902 100.456 30.7427C100.601 30.3822 100.785 30.0797 101.008 29.8352C101.245 29.5777 101.514 29.3846 101.817 29.2559C102.132 29.1143 102.467 29.0435 102.822 29.0435C103.177 29.0435 103.506 29.1143 103.808 29.2559C104.124 29.3846 104.4 29.5777 104.637 29.8352C104.873 30.0797 105.057 30.3822 105.189 30.7427C105.333 31.0902 105.406 31.4764 105.406 31.9012V31.9398ZM116.977 29.6228V26.5527C116.083 26.5141 115.373 26.7072 114.848 27.132C114.322 27.5568 113.908 28.1231 113.605 28.8311V26.7458H110.608V37.0951H113.605V33.272C113.605 32.0234 113.888 31.1031 114.453 30.5109C115.032 29.9188 115.82 29.6228 116.819 29.6228H116.977ZM128.71 32.2101V32.1715C128.71 31.4378 128.605 30.7362 128.394 30.0669C128.197 29.3846 127.882 28.7861 127.448 28.2712C127.027 27.7434 126.495 27.3251 125.851 27.0161C125.206 26.7072 124.444 26.5527 123.563 26.5527C122.787 26.5527 122.078 26.6943 121.433 26.9775C120.802 27.2607 120.257 27.6469 119.797 28.136C119.336 28.6252 118.975 29.198 118.712 29.8545C118.462 30.5109 118.337 31.2061 118.337 31.9398V31.9784C118.337 32.7765 118.475 33.5038 118.752 34.1602C119.028 34.8038 119.409 35.3638 119.895 35.84C120.395 36.3163 120.98 36.6832 121.65 36.9406C122.334 37.1981 123.07 37.3268 123.859 37.3268C124.819 37.3268 125.653 37.1595 126.363 36.8248C127.073 36.4772 127.678 36.001 128.177 35.396L126.462 33.9092C126.041 34.2825 125.634 34.5528 125.239 34.7202C124.845 34.8875 124.398 34.9712 123.898 34.9712C123.228 34.9712 122.663 34.8038 122.203 34.4692C121.755 34.1216 121.46 33.6132 121.315 32.9438H128.67C128.684 32.8022 128.69 32.6799 128.69 32.5769C128.703 32.474 128.71 32.3517 128.71 32.2101ZM125.791 31.1095H121.276C121.394 30.4401 121.644 29.9059 122.025 29.5069C122.419 29.1079 122.932 28.9084 123.563 28.9084C124.194 28.9084 124.7 29.1143 125.082 29.5262C125.463 29.9253 125.699 30.453 125.791 31.1095ZM140.626 37.0951V30.3951C140.626 29.198 140.311 28.2583 139.679 27.5761C139.062 26.8938 138.181 26.5527 137.037 26.5527C136.656 26.5527 136.314 26.5978 136.012 26.6879C135.709 26.778 135.433 26.9003 135.183 27.0547C134.934 27.2092 134.704 27.3894 134.493 27.5954C134.296 27.7885 134.112 27.9944 133.941 28.2132V26.7458H130.944V37.0951H133.941V31.3219C133.941 30.6268 134.105 30.1055 134.434 29.7579C134.776 29.3975 135.236 29.2173 135.814 29.2173C136.393 29.2173 136.84 29.3975 137.155 29.7579C137.471 30.1055 137.629 30.6268 137.629 31.3219V37.0951H140.626ZM153.859 37.0951V23H150.862V28.0974C150.507 27.6855 150.066 27.3251 149.54 27.0161C149.028 26.7072 148.37 26.5527 147.569 26.5527C146.937 26.5527 146.333 26.6686 145.754 26.9003C145.176 27.132 144.663 27.4795 144.216 27.9429C143.782 28.3935 143.427 28.9534 143.151 29.6228C142.888 30.2792 142.757 31.0387 142.757 31.9012V31.9398C142.757 32.8022 142.888 33.5681 143.151 34.2375C143.427 34.8939 143.789 35.4539 144.236 35.9173C144.683 36.3678 145.195 36.7089 145.774 36.9406C146.352 37.1723 146.95 37.2882 147.569 37.2882C148.357 37.2882 149.008 37.1337 149.521 36.8248C150.047 36.503 150.493 36.0975 150.862 35.6084V37.0951H153.859ZM150.901 31.9398C150.901 32.3646 150.829 32.7572 150.684 33.1176C150.553 33.4651 150.369 33.7676 150.132 34.0251C149.908 34.2696 149.639 34.4627 149.324 34.6043C149.021 34.7331 148.692 34.7974 148.338 34.7974C147.983 34.7974 147.647 34.7331 147.332 34.6043C147.029 34.4627 146.76 34.2696 146.523 34.0251C146.287 33.7676 146.096 33.4651 145.951 33.1176C145.82 32.7572 145.754 32.3646 145.754 31.9398V31.9012C145.754 31.4635 145.82 31.0709 145.951 30.7233C146.096 30.3758 146.287 30.0797 146.523 29.8352C146.76 29.5777 147.029 29.3846 147.332 29.2559C147.647 29.1143 147.983 29.0435 148.338 29.0435C148.692 29.0435 149.021 29.1143 149.324 29.2559C149.639 29.3846 149.908 29.5777 150.132 29.8352C150.369 30.0797 150.553 30.3822 150.684 30.7427C150.829 31.0902 150.901 31.4764 150.901 31.9012V31.9398ZM166.397 32.2101V32.1715C166.397 31.4378 166.292 30.7362 166.081 30.0669C165.884 29.3846 165.569 28.7861 165.135 28.2712C164.714 27.7434 164.182 27.3251 163.538 27.0161C162.893 26.7072 162.131 26.5527 161.25 26.5527C160.474 26.5527 159.764 26.6943 159.12 26.9775C158.489 27.2607 157.944 27.6469 157.483 28.136C157.023 28.6252 156.662 29.198 156.399 29.8545C156.149 30.5109 156.024 31.2061 156.024 31.9398V31.9784C156.024 32.7765 156.162 33.5038 156.438 34.1602C156.714 34.8038 157.096 35.3638 157.582 35.84C158.082 36.3163 158.667 36.6832 159.337 36.9406C160.021 37.1981 160.757 37.3268 161.546 37.3268C162.505 37.3268 163.34 37.1595 164.05 36.8248C164.76 36.4772 165.365 36.001 165.864 35.396L164.149 33.9092C163.728 34.2825 163.321 34.5528 162.926 34.7202C162.532 34.8875 162.085 34.9712 161.585 34.9712C160.915 34.9712 160.349 34.8038 159.889 34.4692C159.442 34.1216 159.147 33.6132 159.002 32.9438H166.357C166.371 32.8022 166.377 32.6799 166.377 32.5769C166.39 32.474 166.397 32.3517 166.397 32.2101ZM163.478 31.1095H158.962C159.081 30.4401 159.331 29.9059 159.712 29.5069C160.106 29.1079 160.619 28.9084 161.25 28.9084C161.881 28.9084 162.387 29.1143 162.768 29.5262C163.15 29.9253 163.386 30.453 163.478 31.1095ZM175 29.6228V26.5527C174.106 26.5141 173.396 26.7072 172.87 27.132C172.344 27.5568 171.93 28.1231 171.628 28.8311V26.7458H168.631V37.0951H171.628V33.272C171.628 32.0234 171.911 31.1031 172.476 30.5109C173.054 29.9188 173.843 29.6228 174.842 29.6228H175ZM95.491 55.8091V55.7705C95.491 55.0368 95.3857 54.3354 95.1754 53.6659C94.9781 52.9837 94.6626 52.3852 94.2287 51.8703C93.8082 51.3426 93.2757 50.9241 92.6316 50.6152C91.9874 50.3064 91.2249 50.1519 90.3441 50.1519C89.5684 50.1519 88.8585 50.2935 88.2143 50.5766C87.5833 50.8599 87.0377 51.2461 86.5777 51.7351C86.1175 52.2242 85.7561 52.7971 85.493 53.4536C85.2433 54.11 85.1184 54.8052 85.1184 55.5389V55.5774C85.1184 56.3755 85.2564 57.1029 85.5324 57.7593C85.8085 58.403 86.1898 58.9629 86.6763 59.4391C87.1757 59.9155 87.7608 60.2822 88.4313 60.5397C89.1149 60.7973 89.8511 60.9259 90.6398 60.9259C91.5995 60.9259 92.4343 60.7586 93.1442 60.424C93.8541 60.0762 94.4588 59.6 94.9585 58.995L93.2428 57.5083C92.8222 57.8816 92.4146 58.1518 92.0202 58.3193C91.6258 58.4867 91.1789 58.5703 90.6793 58.5703C90.0088 58.5703 89.4436 58.403 88.9834 58.0682C88.5365 57.7207 88.2406 57.2123 88.0961 56.5429H95.4515C95.4646 56.4013 95.4711 56.279 95.4711 56.1761C95.4843 56.073 95.491 55.9507 95.491 55.8091ZM92.5725 54.7087H88.0567C88.1749 54.0392 88.4248 53.5051 88.8059 53.106C89.2003 52.707 89.7131 52.5075 90.3441 52.5075C90.9751 52.5075 91.4813 52.7135 91.8626 53.1253C92.2436 53.5243 92.4804 54.0521 92.5725 54.7087ZM91.4287 49.2057L93.9527 46.8888L91.3696 45.7881L89.1412 49.2057H91.4287ZM112.944 59.0336L111.189 57.296C110.821 57.6306 110.447 57.9009 110.065 58.1068C109.697 58.2999 109.263 58.3965 108.764 58.3965C108.356 58.3965 107.988 58.3257 107.659 58.1842C107.331 58.0297 107.048 57.8237 106.812 57.5662C106.575 57.3089 106.391 57.0064 106.259 56.6588C106.141 56.3111 106.082 55.938 106.082 55.5389V55.5003C106.082 55.1141 106.141 54.7537 106.259 54.419C106.391 54.0715 106.568 53.769 106.792 53.5114C107.028 53.2541 107.298 53.0545 107.6 52.9129C107.916 52.7585 108.264 52.6812 108.645 52.6812C109.185 52.6812 109.631 52.7843 109.986 52.9902C110.355 53.196 110.709 53.4728 111.051 53.8205L112.885 51.8896C112.386 51.349 111.807 50.9241 111.15 50.6152C110.493 50.3064 109.664 50.1519 108.665 50.1519C107.85 50.1519 107.101 50.2935 106.417 50.5766C105.747 50.8599 105.168 51.2461 104.682 51.7351C104.195 52.2242 103.814 52.7971 103.538 53.4536C103.262 54.11 103.124 54.8052 103.124 55.5389V55.5774C103.124 56.3111 103.262 57.0064 103.538 57.6628C103.814 58.3065 104.195 58.8729 104.682 59.3619C105.168 59.8381 105.747 60.218 106.417 60.5011C107.101 60.7844 107.837 60.9259 108.626 60.9259C109.678 60.9259 110.532 60.7521 111.189 60.4045C111.847 60.0441 112.432 59.5872 112.944 59.0336ZM121.272 53.2218V50.1519C120.378 50.1133 119.668 50.3064 119.142 50.731C118.616 51.1559 118.202 51.7223 117.9 52.4302V50.3448H114.902V60.6942H117.9V56.8712C117.9 55.6226 118.182 54.7021 118.748 54.11C119.326 53.518 120.115 53.2218 121.114 53.2218H121.272ZM133.004 55.8091V55.7705C133.004 55.0368 132.899 54.3354 132.689 53.6659C132.492 52.9837 132.176 52.3852 131.742 51.8703C131.322 51.3426 130.789 50.9241 130.145 50.6152C129.501 50.3064 128.738 50.1519 127.858 50.1519C127.082 50.1519 126.372 50.2935 125.728 50.5766C125.097 50.8599 124.551 51.2461 124.091 51.7351C123.631 52.2242 123.269 52.7971 123.007 53.4536C122.757 54.11 122.632 54.8052 122.632 55.5389V55.5774C122.632 56.3755 122.77 57.1029 123.046 57.7593C123.322 58.403 123.703 58.9629 124.19 59.4391C124.689 59.9155 125.274 60.2822 125.945 60.5397C126.628 60.7973 127.365 60.9259 128.153 60.9259C129.113 60.9259 129.948 60.7586 130.658 60.424C131.368 60.0762 131.972 59.6 132.472 58.995L130.756 57.5083C130.336 57.8816 129.928 58.1518 129.534 58.3193C129.139 58.4867 128.692 58.5703 128.193 58.5703C127.522 58.5703 126.957 58.403 126.497 58.0682C126.05 57.7207 125.754 57.2123 125.61 56.5429H132.965C132.978 56.4013 132.985 56.279 132.985 56.1761C132.998 56.073 133.004 55.9507 133.004 55.8091ZM130.086 54.7087H125.57C125.688 54.0392 125.938 53.5051 126.319 53.106C126.714 52.707 127.227 52.5075 127.858 52.5075C128.489 52.5075 128.995 52.7135 129.376 53.1253C129.757 53.5243 129.994 54.0521 130.086 54.7087ZM142.988 57.547V57.5083C142.988 57.0321 142.889 56.6265 142.692 56.2919C142.495 55.9572 142.245 55.6739 141.943 55.4424C141.64 55.2106 141.299 55.0175 140.918 54.8631C140.536 54.6958 140.161 54.5542 139.793 54.4383C139.504 54.3482 139.228 54.2581 138.965 54.168C138.715 54.0778 138.492 53.9878 138.295 53.8976C138.098 53.7947 137.94 53.6917 137.821 53.5888C137.703 53.4728 137.644 53.3441 137.644 53.2026V53.1639C137.644 52.9579 137.736 52.7906 137.92 52.662C138.104 52.5204 138.38 52.4494 138.748 52.4494C139.13 52.4494 139.57 52.5396 140.07 52.7198C140.569 52.8872 141.082 53.1189 141.608 53.4149L142.751 51.3876C142.173 51.0143 141.535 50.7247 140.839 50.5187C140.155 50.2998 139.478 50.1904 138.807 50.1904C138.268 50.1904 137.762 50.2612 137.289 50.4029C136.829 50.5445 136.421 50.7568 136.066 51.0401C135.725 51.3232 135.449 51.6707 135.238 52.0827C135.041 52.4817 134.942 52.9451 134.942 53.4728V53.5114C134.942 54.0134 135.034 54.4383 135.218 54.7858C135.416 55.1333 135.665 55.4295 135.968 55.6739C136.27 55.9057 136.605 56.0988 136.973 56.2532C137.355 56.395 137.729 56.5171 138.098 56.6202C138.387 56.7102 138.663 56.7938 138.926 56.8712C139.189 56.9485 139.419 57.0321 139.616 57.1221C139.826 57.1994 139.991 57.296 140.109 57.4118C140.227 57.5276 140.286 57.6628 140.286 57.8172V57.8559C140.286 58.0876 140.181 58.2742 139.971 58.4159C139.774 58.5575 139.458 58.6282 139.024 58.6282C138.525 58.6282 137.986 58.5251 137.407 58.3193C136.842 58.1134 136.27 57.8043 135.692 57.3925L134.41 59.3233C135.12 59.8639 135.863 60.263 136.638 60.5205C137.427 60.7649 138.196 60.8873 138.946 60.8873C139.511 60.8873 140.037 60.8228 140.523 60.6942C141.023 60.5526 141.456 60.3466 141.825 60.0762C142.193 59.806 142.475 59.4648 142.673 59.0531C142.883 58.6282 142.988 58.1263 142.988 57.547ZM154.444 59.0336L152.689 57.296C152.321 57.6306 151.946 57.9009 151.565 58.1068C151.197 58.2999 150.763 58.3965 150.264 58.3965C149.856 58.3965 149.488 58.3257 149.159 58.1842C148.831 58.0297 148.548 57.8237 148.311 57.5662C148.075 57.3089 147.891 57.0064 147.759 56.6588C147.641 56.3111 147.582 55.938 147.582 55.5389V55.5003C147.582 55.1141 147.641 54.7537 147.759 54.419C147.891 54.0715 148.068 53.769 148.292 53.5114C148.528 53.2541 148.798 53.0545 149.1 52.9129C149.416 52.7585 149.764 52.6812 150.145 52.6812C150.684 52.6812 151.131 52.7843 151.486 52.9902C151.854 53.196 152.209 53.4728 152.551 53.8205L154.385 51.8896C153.885 51.349 153.307 50.9241 152.65 50.6152C151.992 50.3064 151.164 50.1519 150.165 50.1519C149.35 50.1519 148.601 50.2935 147.917 50.5766C147.247 50.8599 146.668 51.2461 146.182 51.7351C145.695 52.2242 145.314 52.7971 145.038 53.4536C144.762 54.11 144.624 54.8052 144.624 55.5389V55.5774C144.624 56.3111 144.762 57.0064 145.038 57.6628C145.314 58.3065 145.695 58.8729 146.182 59.3619C146.668 59.8381 147.247 60.218 147.917 60.5011C148.601 60.7844 149.337 60.9259 150.126 60.9259C151.177 60.9259 152.032 60.7521 152.689 60.4045C153.347 60.0441 153.932 59.5872 154.444 59.0336ZM166.262 55.8091V55.7705C166.262 55.0368 166.157 54.3354 165.946 53.6659C165.749 52.9837 165.434 52.3852 165 51.8703C164.579 51.3426 164.047 50.9241 163.402 50.6152C162.758 50.3064 161.996 50.1519 161.115 50.1519C160.339 50.1519 159.629 50.2935 158.985 50.5766C158.354 50.8599 157.809 51.2461 157.349 51.7351C156.888 52.2242 156.527 52.7971 156.264 53.4536C156.014 54.11 155.889 54.8052 155.889 55.5389V55.5774C155.889 56.3755 156.027 57.1029 156.303 57.7593C156.579 58.403 156.961 58.9629 157.447 59.4391C157.947 59.9155 158.532 60.2822 159.202 60.5397C159.886 60.7973 160.622 60.9259 161.411 60.9259C162.37 60.9259 163.205 60.7586 163.915 60.424C164.625 60.0762 165.23 59.6 165.729 58.995L164.014 57.5083C163.593 57.8816 163.186 58.1518 162.791 58.3193C162.397 58.4867 161.95 58.5703 161.45 58.5703C160.78 58.5703 160.214 58.403 159.754 58.0682C159.307 57.7207 159.012 57.2123 158.867 56.5429H166.222C166.236 56.4013 166.242 56.279 166.242 56.1761C166.255 56.073 166.262 55.9507 166.262 55.8091ZM163.343 54.7087H158.828C158.946 54.0392 159.195 53.5051 159.577 53.106C159.971 52.707 160.484 52.5075 161.115 52.5075C161.746 52.5075 162.252 52.7135 162.633 53.1253C163.015 53.5243 163.251 54.0521 163.343 54.7087ZM174.865 53.2218V50.1519C173.971 50.1133 173.261 50.3064 172.736 50.731C172.21 51.1559 171.796 51.7223 171.493 52.4302V50.3448H168.496V60.6942H171.493V56.8712C171.493 55.6226 171.776 54.7021 172.341 54.11C172.92 53.518 173.708 53.2218 174.707 53.2218H174.865Z" fill="#FAFAFA"/>
<path d="M48.9995 38.0888C48.9995 34.8826 47.3139 31.8078 44.3133 29.5407C41.3129 27.2736 37.2433 26 32.9998 26H25V30.0296C25 33.2357 26.6857 36.3106 29.6862 38.5777C32.6867 40.8447 36.7563 42.1185 40.9997 42.1185H48.9995" stroke="#00E88F" stroke-width="5" stroke-linecap="round" stroke-linejoin="round"/>
<path d="M49.0005 46.1479C49.0005 42.9418 50.6862 39.8669 53.6865 37.5999C56.6872 35.3327 60.7571 34.0591 65.0005 34.0591H73.0001V36.0739C73.0001 39.2801 71.3142 42.355 68.3142 44.622C65.3137 46.8891 61.2438 48.1627 57.0004 48.1627H49.0005" stroke="#00E88F" stroke-width="5" stroke-linecap="round" stroke-linejoin="round"/>
<path d="M49.0005 58.237V38.0888" stroke="#00E88F" stroke-width="5" stroke-linecap="round" stroke-linejoin="round"/>
</svg>
