<svg width="124" height="108" viewBox="0 0 124 108" fill="none" xmlns="http://www.w3.org/2000/svg">
<path d="M104.321 58.2856L104.321 58.2858L121.818 77.3131C121.818 77.3132 121.818 77.3132 121.818 77.3133C124.064 79.7587 124.064 83.7247 121.8 86.17L121.798 86.1715L103.875 105.684C101.651 108.105 98.0584 108.105 95.8345 105.684L95.8343 105.684L78.3378 86.6566C78.3377 86.6566 78.3377 86.6565 78.3376 86.6564C76.1013 84.2217 74.8462 80.9268 74.8462 77.46V60.753C74.8462 57.2545 77.4323 54.5026 80.5466 54.5026H95.9119C99.06 54.5026 102.087 55.853 104.321 58.2856ZM81.6161 67.4822C81.6161 70.5231 83.874 73.0449 86.7663 73.0449C89.6599 73.0449 91.9166 70.5006 91.9166 67.4822C91.9166 64.4413 89.6586 61.9195 86.7663 61.9195C83.874 61.9195 81.6161 64.4413 81.6161 67.4822ZM67.704 26.9802C67.704 41.6589 56.7862 53.4815 43.4025 53.4815C30.0187 53.4815 19.1011 41.6587 19.1011 27.0013C19.1011 12.3226 30.0189 0.5 43.4025 0.5C56.7864 0.5 67.704 12.3229 67.704 26.9802ZM67.6652 62.385V77.4389C67.6652 82.9798 69.646 88.1859 73.2417 92.1005L84.2008 104.032C82.5752 106.139 80.1876 107.484 77.5045 107.484H9.30054C4.48116 107.484 0.5 103.214 0.5 97.8587V89.0833C0.5 73.6664 11.9797 61.2314 26.0423 61.2108H29.1602C33.5175 63.362 38.3233 64.5859 43.4025 64.5859C48.4811 64.5859 53.3059 63.3623 57.6454 61.2108H60.7636C63.1461 61.2108 65.438 61.6928 67.6652 62.385Z" fill="#27BA81" stroke="black"/>
</svg>
