<svg width="157" height="146" viewBox="0 0 157 146" fill="none" xmlns="http://www.w3.org/2000/svg">
<path d="M77.5977 62.2179C77.5977 53.0226 74.1691 44.204 68.0659 37.7019C61.9632 31.1999 53.6857 27.5471 45.0547 27.5471H28.7832V39.104C28.7832 48.2993 32.2119 57.118 38.3148 63.62C44.4178 70.1221 52.6953 73.775 61.3263 73.775H77.5977" stroke="#00E88F" stroke-width="15" stroke-linecap="round" stroke-linejoin="round"/>
<path d="M77.5996 85.3316C77.5996 76.1365 81.0282 67.3177 87.1309 60.8157C93.2341 54.3137 101.512 50.6609 110.143 50.6609H126.414V56.4394C126.414 65.6346 122.985 74.4535 116.883 80.9553C110.78 87.4572 102.502 91.1101 93.8712 91.1101H77.5996" stroke="#00E88F" stroke-width="15" stroke-linecap="round" stroke-linejoin="round"/>
<path d="M77.5996 120.003V62.2178" stroke="#00E88F" stroke-width="15" stroke-linecap="round" stroke-linejoin="round"/>
</svg>
