<svg width="68" height="56" viewBox="0 0 68 56" fill="none" xmlns="http://www.w3.org/2000/svg">
<path d="M66.71 18.492C67.23 18.04 68 18.462 68 19.177V49C68 52.865 65.14 56 61.62 56H6.38C2.86 56 0 52.865 0 49V19.192C0 18.463 0.760039 18.054 1.29004 18.506C4.26004 21.044 8.21 24.267 21.75 35.073C24.56 37.319 29.29 42.044 34 42.015C38.74 42.058 43.56 37.231 46.26 35.073C59.81 24.267 63.74 21.029 66.71 18.492ZM34 37.333C37.08 37.392 41.52 33.075 43.75 31.296C61.37 17.252 62.71 16.027 66.78 12.527C67.55 11.871 68 10.85 68 9.771V7C68 3.135 65.14 0 61.62 0H6.38C2.86 0 0 3.135 0 7V9.771C0 10.85 0.449971 11.856 1.21997 12.527C5.28997 16.012 6.63 17.252 24.25 31.296C26.48 33.075 30.92 37.392 34 37.333Z" fill="#642E3D"/>
</svg>
