<svg width="340" height="270" viewBox="0 0 340 270" fill="none" xmlns="http://www.w3.org/2000/svg">
<g clip-path="url(#clip0)">
<path d="M5.08301 232.852L5.08311 232.852L146.718 13.4621C146.718 13.462 146.718 13.462 146.718 13.4619C151.845 5.52263 160.875 1.49635 170.006 1.5C179.138 1.50366 188.164 5.53759 193.282 13.4621L334.913 232.852L336.173 232.038L334.913 232.852C340.015 240.752 339.372 249.604 334.889 256.531C330.395 263.475 322.015 268.5 311.631 268.5H28.3649C17.9604 268.5 9.58653 263.467 5.10005 256.52C0.624096 249.589 -0.00852997 240.736 5.08301 232.852ZM170 185.18C154.339 185.18 141.347 196.557 141.347 210.938C141.347 225.318 154.339 236.695 170 236.695C185.661 236.695 198.652 225.318 198.652 210.938C198.652 196.557 185.661 185.18 170 185.18ZM142.723 99.5769L147.102 171.296C147.364 175.584 151.266 178.688 155.672 178.688H184.327C188.733 178.688 192.636 175.584 192.897 171.296L197.276 99.5769C197.56 94.9206 193.455 91.3125 188.706 91.3125H151.293C146.543 91.3125 142.439 94.9208 142.723 99.5769Z" fill="#642E3D" stroke="#242424" stroke-width="3"/>
</g>
<defs>
<clipPath id="clip0">
<rect width="340" height="270" fill="white"/>
</clipPath>
</defs>
</svg>
