<svg width="45" height="49" viewBox="0 0 45 49" fill="none" xmlns="http://www.w3.org/2000/svg">
<g clip-path="url(#clip0)">
<g filter="url(#filter0_i)">
<path d="M40.1786 6.57764H4.82143C3.54271 6.57764 2.31636 7.04589 1.41216 7.87938C0.50797 8.71288 0 9.84334 0 11.0221L0 43.6147C0 44.7934 0.50797 45.9239 1.41216 46.7574C2.31636 47.5909 3.54271 48.0591 4.82143 48.0591H18.6077V33.9563H12.2796V27.3184H18.6077V22.2591C18.6077 16.5045 22.3242 13.3258 28.0165 13.3258C30.7426 13.3258 33.5933 13.7739 33.5933 13.7739V19.4221H30.4523C27.3576 19.4221 26.3923 21.1925 26.3923 23.0082V27.3184H33.301L32.1961 33.9563H26.3923V48.0591H40.1786C41.4573 48.0591 42.6836 47.5909 43.5878 46.7574C44.492 45.9239 45 44.7934 45 43.6147V11.0221C45 9.84334 44.492 8.71288 43.5878 7.87938C42.6836 7.04589 41.4573 6.57764 40.1786 6.57764Z" fill="#FAFAFA"/>
</g>
<path d="M33.301 26.8184H26.8923V23.0082C26.8923 22.1825 27.1117 21.4249 27.6264 20.8763C28.1347 20.3346 29.001 19.9221 30.4523 19.9221H33.5933H34.0933V19.4221V13.7739V13.3464L33.671 13.28L33.5933 13.7739C33.671 13.28 33.6709 13.28 33.6708 13.28L33.6707 13.28L33.6702 13.2799L33.6683 13.2796L33.6615 13.2785L33.6359 13.2746L33.5383 13.26C33.4533 13.2475 33.3294 13.2297 33.1725 13.2084C32.8587 13.1659 32.4123 13.1093 31.8801 13.0527C30.8176 12.9397 29.4041 12.8258 28.0165 12.8258C25.0804 12.8258 22.5947 13.6463 20.8384 15.267C19.0764 16.893 18.1077 19.27 18.1077 22.2591V26.8184H12.2796H11.7796V27.3184V33.9563V34.4563H12.2796H18.1077V47.5591H4.82143C3.66277 47.5591 2.55894 47.1345 1.75105 46.3897C0.944533 45.6463 0.5 44.6471 0.5 43.6147V11.0221C0.5 9.98969 0.944533 8.99048 1.75105 8.24702C2.55894 7.5023 3.66277 7.07764 4.82143 7.07764H40.1786C41.3372 7.07764 42.4411 7.5023 43.2489 8.24702C44.0555 8.99048 44.5 9.98969 44.5 11.0221V43.6147C44.5 44.6471 44.0555 45.6463 43.2489 46.3897C42.4411 47.1345 41.3372 47.5591 40.1786 47.5591H26.8923V34.4563H32.1961H32.6197L32.6893 34.0384L33.7942 27.4005L33.8911 26.8184H33.301Z" stroke="#27BA81"/>
</g>
<defs>
<filter id="filter0_i" x="0" y="6.57764" width="45" height="45.4815" filterUnits="userSpaceOnUse" color-interpolation-filters="sRGB">
<feFlood flood-opacity="0" result="BackgroundImageFix"/>
<feBlend mode="normal" in="SourceGraphic" in2="BackgroundImageFix" result="shape"/>
<feColorMatrix in="SourceAlpha" type="matrix" values="0 0 0 0 0 0 0 0 0 0 0 0 0 0 0 0 0 0 127 0" result="hardAlpha"/>
<feOffset dy="4"/>
<feGaussianBlur stdDeviation="2"/>
<feComposite in2="hardAlpha" operator="arithmetic" k2="-1" k3="1"/>
<feColorMatrix type="matrix" values="0 0 0 0 0 0 0 0 0 0 0 0 0 0 0 0 0 0 0.25 0"/>
<feBlend mode="normal" in2="shape" result="effect1_innerShadow"/>
</filter>
<clipPath id="clip0">
<rect width="45" height="47.4074" fill="white" transform="translate(0 0.770264)"/>
</clipPath>
</defs>
</svg>
