<svg width="415" height="130" viewBox="0 0 415 130" fill="none" xmlns="http://www.w3.org/2000/svg">
<g clip-path="url(#clip0)">
<path d="M177.602 45.5413V27.0001C177.602 22.6679 176.577 19.2896 174.527 16.8651C172.478 14.4406 169.206 13.2284 164.711 13.2284C162.266 13.2284 160.181 13.4669 158.455 13.9438C156.729 14.4208 155.075 15.0368 153.493 15.792L155.542 22.7077C156.873 22.1512 158.131 21.7339 159.318 21.4557C160.541 21.1377 161.943 20.9787 163.525 20.9787C165.574 20.9787 167.121 21.4755 168.163 22.4692C169.206 23.4628 169.727 24.9135 169.727 26.8213V27.3579C168.684 26.9604 167.606 26.6424 166.491 26.4039C165.413 26.1655 164.136 26.0463 162.662 26.0463C160.936 26.0463 159.354 26.2649 157.916 26.702C156.513 27.0995 155.291 27.7155 154.248 28.5502C153.241 29.3849 152.45 30.4381 151.875 31.71C151.3 32.9818 151.012 34.4921 151.012 36.2409V36.3601C151.012 37.95 151.264 39.3609 151.767 40.593C152.306 41.7853 153.025 42.7988 153.924 43.6335C154.823 44.4682 155.866 45.1041 157.053 45.5413C158.275 45.9387 159.57 46.1375 160.936 46.1375C162.949 46.1375 164.658 45.7798 166.06 45.0643C167.462 44.3092 168.667 43.3155 169.674 42.0834V45.5413H177.602ZM169.835 34.2735C169.835 35.9428 169.242 37.2941 168.056 38.3275C166.905 39.3609 165.359 39.8776 163.417 39.8776C162.086 39.8776 161.008 39.5398 160.181 38.8641C159.354 38.1884 158.94 37.2345 158.94 36.0024V35.8832C158.94 34.4524 159.444 33.3594 160.45 32.6042C161.457 31.849 162.842 31.4715 164.603 31.4715C165.61 31.4715 166.545 31.5907 167.408 31.8292C168.307 32.0279 169.116 32.3061 169.835 32.6638V34.2735ZM215.022 29.6233V29.5041C215.022 26.8412 214.644 24.4962 213.889 22.4692C213.17 20.4024 212.199 18.6735 210.976 17.2824C209.754 15.8516 208.352 14.7785 206.77 14.0631C205.187 13.3477 203.552 12.99 201.862 12.99C199.704 12.99 197.906 13.4868 196.468 14.4804C195.066 15.4343 193.861 16.6664 192.854 18.1767V13.5861H184.656V55.0801H192.854V41.3681C193.825 42.6399 195.012 43.7528 196.414 44.7066C197.852 45.6605 199.668 46.1375 201.862 46.1375C203.588 46.1375 205.241 45.7798 206.823 45.0643C208.405 44.3489 209.79 43.2957 210.976 41.9046C212.199 40.4737 213.17 38.7449 213.889 36.7179C214.644 34.6511 215.022 32.2863 215.022 29.6233ZM206.823 29.6233C206.823 30.9747 206.626 32.1869 206.23 33.26C205.871 34.3332 205.367 35.2671 204.72 36.062C204.073 36.8172 203.317 37.4134 202.455 37.8506C201.628 38.2481 200.729 38.4468 199.758 38.4468C198.787 38.4468 197.87 38.2481 197.007 37.8506C196.18 37.4134 195.443 36.8172 194.796 36.062C194.184 35.2671 193.681 34.3332 193.285 33.26C192.926 32.1471 192.746 30.9349 192.746 29.6233V29.5041C192.746 28.1925 192.926 27.0001 193.285 25.927C193.681 24.8141 194.184 23.8801 194.796 23.125C195.443 22.3301 196.18 21.7339 197.007 21.3365C197.87 20.8992 198.787 20.6806 199.758 20.6806C200.729 20.6806 201.628 20.8992 202.455 21.3365C203.317 21.7339 204.073 22.3301 204.72 23.125C205.367 23.8801 205.871 24.8141 206.23 25.927C206.626 27.0001 206.823 28.1925 206.823 29.5041V29.6233ZM238.473 22.4692V12.99C236.028 12.8707 234.086 13.4669 232.648 14.7785C231.21 16.0901 230.077 17.8388 229.25 20.0249V13.5861H221.052V45.5413H229.25V33.7369C229.25 29.8817 230.023 27.0399 231.569 25.2116C233.151 23.3833 235.308 22.4692 238.041 22.4692H238.473ZM270.563 30.458V30.3387C270.563 28.0733 270.275 25.9071 269.7 23.8404C269.161 21.7339 268.297 19.8857 267.111 18.2959C265.96 16.6664 264.504 15.3747 262.742 14.4208C260.98 13.4669 258.895 12.99 256.486 12.99C254.364 12.99 252.423 13.4271 250.66 14.3016C248.935 15.1759 247.443 16.3683 246.184 17.8786C244.925 19.3889 243.937 21.1576 243.218 23.1846C242.534 25.2116 242.193 27.3579 242.193 29.6233V29.7426C242.193 32.2068 242.57 34.4524 243.326 36.4794C244.081 38.4666 245.124 40.1955 246.454 41.6661C247.82 43.1367 249.42 44.2694 251.254 45.0643C253.124 45.8592 255.137 46.2567 257.295 46.2567C259.92 46.2567 262.203 45.74 264.145 44.7066C266.086 43.6335 267.74 42.163 269.106 40.2949L264.414 35.7043C263.263 36.8569 262.149 37.6916 261.07 38.2083C259.992 38.725 258.769 38.9833 257.403 38.9833C255.569 38.9833 254.022 38.4666 252.764 37.4333C251.542 36.3601 250.732 34.7902 250.337 32.7234H270.455C270.491 32.2863 270.509 31.9087 270.509 31.5907C270.545 31.2728 270.563 30.8952 270.563 30.458ZM262.58 27.0598H250.229C250.553 24.993 251.236 23.3436 252.279 22.1115C253.358 20.8794 254.76 20.2633 256.486 20.2633C258.211 20.2633 259.596 20.8992 260.639 22.1711C261.681 23.4032 262.329 25.0328 262.58 27.0598ZM303.155 45.5413V24.8539C303.155 21.1576 302.292 18.2562 300.565 16.1497C298.875 14.0432 296.466 12.99 293.338 12.99C292.296 12.99 291.361 13.129 290.534 13.4072C289.706 13.6855 288.951 14.0631 288.268 14.54C287.585 15.0169 286.956 15.5734 286.381 16.2093C285.841 16.8055 285.338 17.4414 284.87 18.1171V13.5861H276.672V45.5413H284.87V27.7155C284.87 25.5693 285.32 23.9596 286.219 22.8865C287.154 21.7736 288.412 21.2172 289.994 21.2172C291.576 21.2172 292.799 21.7736 293.662 22.8865C294.525 23.9596 294.956 25.5693 294.956 27.7155V45.5413H303.155ZM339.348 45.5413V2.02026H331.15V17.7594C330.179 16.4875 328.974 15.3747 327.536 14.4208C326.134 13.4669 324.336 12.99 322.143 12.99C320.416 12.99 318.762 13.3477 317.18 14.0631C315.599 14.7785 314.196 15.8516 312.974 17.2824C311.787 18.6735 310.816 20.4024 310.061 22.4692C309.342 24.4962 308.982 26.8412 308.982 29.5041V29.6233C308.982 32.2863 309.342 34.6511 310.061 36.7179C310.816 38.7449 311.805 40.4737 313.027 41.9046C314.25 43.2957 315.652 44.3489 317.234 45.0643C318.817 45.7798 320.452 46.1375 322.143 46.1375C324.3 46.1375 326.08 45.6605 327.482 44.7066C328.921 43.713 330.143 42.461 331.15 40.9507V45.5413H339.348ZM331.258 29.6233C331.258 30.9349 331.06 32.1471 330.664 33.26C330.305 34.3332 329.801 35.2671 329.154 36.062C328.543 36.8172 327.806 37.4134 326.943 37.8506C326.116 38.2481 325.217 38.4468 324.246 38.4468C323.275 38.4468 322.358 38.2481 321.495 37.8506C320.668 37.4134 319.931 36.8172 319.284 36.062C318.637 35.2671 318.115 34.3332 317.72 33.26C317.36 32.1471 317.18 30.9349 317.18 29.6233V29.5041C317.18 28.1528 317.36 26.9405 317.72 25.8674C318.115 24.7943 318.637 23.8801 319.284 23.125C319.931 22.3301 320.668 21.7339 321.495 21.3365C322.358 20.8992 323.275 20.6806 324.246 20.6806C325.217 20.6806 326.116 20.8992 326.943 21.3365C327.806 21.7339 328.543 22.3301 329.154 23.125C329.801 23.8801 330.305 24.8141 330.664 25.927C331.06 27.0001 331.258 28.1925 331.258 29.5041V29.6233ZM373.64 30.458V30.3387C373.64 28.0733 373.352 25.9071 372.777 23.8404C372.238 21.7339 371.375 19.8857 370.188 18.2959C369.037 16.6664 367.581 15.3747 365.82 14.4208C364.058 13.4669 361.972 12.99 359.563 12.99C357.442 12.99 355.5 13.4271 353.738 14.3016C352.012 15.1759 350.52 16.3683 349.261 17.8786C348.003 19.3889 347.014 21.1576 346.295 23.1846C345.612 25.2116 345.27 27.3579 345.27 29.6233V29.7426C345.27 32.2068 345.648 34.4524 346.403 36.4794C347.158 38.4666 348.201 40.1955 349.531 41.6661C350.897 43.1367 352.498 44.2694 354.331 45.0643C356.201 45.8592 358.215 46.2567 360.372 46.2567C362.997 46.2567 365.28 45.74 367.222 44.7066C369.163 43.6335 370.817 42.163 372.184 40.2949L367.491 35.7043C366.341 36.8569 365.226 37.6916 364.147 38.2083C363.069 38.725 361.846 38.9833 360.48 38.9833C358.646 38.9833 357.1 38.4666 355.841 37.4333C354.619 36.3601 353.81 34.7902 353.414 32.7234H373.532C373.568 32.2863 373.586 31.9087 373.586 31.5907C373.622 31.2728 373.64 30.8952 373.64 30.458ZM365.657 27.0598H353.306C353.63 24.993 354.313 23.3436 355.356 22.1115C356.435 20.8794 357.837 20.2633 359.563 20.2633C361.289 20.2633 362.673 20.8992 363.716 22.1711C364.759 23.4032 365.406 25.0328 365.657 27.0598ZM397.171 22.4692V12.99C394.726 12.8707 392.784 13.4669 391.345 14.7785C389.907 16.0901 388.775 17.8388 387.948 20.0249V13.5861H379.75V45.5413H387.948V33.7369C387.948 29.8817 388.721 27.0399 390.267 25.2116C391.849 23.3833 394.007 22.4692 396.739 22.4692H397.171ZM179.706 103.324V103.205C179.706 100.939 179.418 98.7735 178.843 96.7064C178.303 94.6001 177.44 92.7521 176.253 91.1624C175.103 89.5329 173.647 88.2407 171.885 87.287C170.123 86.3333 168.037 85.8565 165.628 85.8565C163.507 85.8565 161.565 86.2935 159.803 87.1677C158.077 88.0424 156.585 89.2348 155.327 90.7449C154.068 92.2551 153.08 94.0241 152.36 96.0508C151.677 98.0776 151.336 100.224 151.336 102.49V102.609C151.336 105.073 151.713 107.319 152.468 109.346C153.223 111.333 154.266 113.062 155.596 114.532C156.963 116.003 158.563 117.135 160.397 117.931C162.266 118.726 164.28 119.123 166.437 119.123C169.062 119.123 171.345 118.606 173.287 117.573C175.229 116.499 176.883 115.029 178.249 113.161L173.557 108.571C172.406 109.723 171.291 110.558 170.213 111.075C169.134 111.591 167.912 111.85 166.545 111.85C164.711 111.85 163.165 111.333 161.907 110.299C160.684 109.226 159.875 107.657 159.48 105.59H179.598C179.634 105.152 179.651 104.775 179.651 104.457C179.687 104.139 179.706 103.761 179.706 103.324ZM171.723 99.9262H159.372C159.695 97.8591 160.379 96.21 161.421 94.9778C162.5 93.7456 163.903 93.1297 165.628 93.1297C167.354 93.1297 168.739 93.7657 169.781 95.0372C170.824 96.2693 171.471 97.8988 171.723 99.9262ZM168.595 82.9348L175.498 75.7809L168.433 72.3824L162.338 82.9348H168.595ZM227.442 113.28L222.642 107.915C221.635 108.948 220.611 109.783 219.568 110.419C218.561 111.015 217.374 111.313 216.008 111.313C214.893 111.313 213.887 111.094 212.988 110.657C212.089 110.18 211.316 109.544 210.668 108.749C210.021 107.955 209.518 107.021 209.158 105.948C208.835 104.874 208.673 103.722 208.673 102.49V102.37C208.673 101.178 208.835 100.065 209.158 99.0319C209.518 97.9588 210.004 97.0247 210.615 96.2296C211.262 95.435 211.999 94.8186 212.826 94.3816C213.689 93.9047 214.642 93.666 215.684 93.666C217.159 93.666 218.381 93.9843 219.352 94.6203C220.359 95.2557 221.33 96.1102 222.265 97.1838L227.281 91.2218C225.914 89.5525 224.332 88.2407 222.534 87.287C220.736 86.3333 218.471 85.8565 215.739 85.8565C213.509 85.8565 211.46 86.2935 209.59 87.1677C207.756 88.0424 206.174 89.2348 204.844 90.7449C203.513 92.2551 202.47 94.0241 201.715 96.0508C200.96 98.0776 200.583 100.224 200.583 102.49V102.609C200.583 104.874 200.96 107.021 201.715 109.047C202.47 111.035 203.513 112.784 204.844 114.294C206.174 115.764 207.756 116.937 209.59 117.811C211.46 118.686 213.473 119.123 215.631 119.123C218.507 119.123 220.844 118.586 222.642 117.513C224.44 116.4 226.04 114.989 227.442 113.28ZM250.219 95.3353V85.8565C247.774 85.7371 245.832 86.3333 244.394 87.6445C242.955 88.9563 241.823 90.7051 240.996 92.891V86.4521H232.798V118.407H240.996V106.603C240.996 102.748 241.769 99.906 243.315 98.0776C244.897 96.2497 247.055 95.3353 249.787 95.3353H250.219ZM282.308 103.324V103.205C282.308 100.939 282.021 98.7735 281.445 96.7064C280.906 94.6001 280.043 92.7521 278.857 91.1624C277.706 89.5329 276.25 88.2407 274.488 87.287C272.726 86.3333 270.641 85.8565 268.231 85.8565C266.11 85.8565 264.168 86.2935 262.407 87.1677C260.681 88.0424 259.188 89.2348 257.93 90.7449C256.672 92.2551 255.682 94.0241 254.963 96.0508C254.28 98.0776 253.939 100.224 253.939 102.49V102.609C253.939 105.073 254.316 107.319 255.071 109.346C255.826 111.333 256.869 113.062 258.199 114.532C259.566 116.003 261.166 117.135 263 117.931C264.87 118.726 266.883 119.123 269.04 119.123C271.665 119.123 273.949 118.606 275.89 117.573C277.832 116.499 279.486 115.029 280.852 113.161L276.16 108.571C275.009 109.723 273.895 110.558 272.816 111.075C271.737 111.591 270.515 111.85 269.148 111.85C267.315 111.85 265.769 111.333 264.51 110.299C263.287 109.226 262.479 107.657 262.083 105.59H282.2C282.236 105.152 282.255 104.775 282.255 104.457C282.291 104.139 282.308 103.761 282.308 103.324ZM274.326 99.9262H261.975C262.299 97.8591 262.982 96.21 264.025 94.9778C265.103 93.7456 266.505 93.1297 268.231 93.1297C269.957 93.1297 271.341 93.7657 272.384 95.0372C273.427 96.2693 274.074 97.8988 274.326 99.9262ZM309.615 108.69V108.571C309.615 107.1 309.345 105.848 308.806 104.815C308.266 103.781 307.583 102.907 306.756 102.192C305.929 101.476 304.994 100.88 303.952 100.403C302.909 99.8864 301.884 99.4493 300.877 99.0912C300.086 98.8133 299.331 98.5348 298.612 98.2569C297.929 97.9784 297.317 97.7005 296.778 97.422C296.239 97.1043 295.807 96.786 295.483 96.4683C295.16 96.1102 294.998 95.7129 294.998 95.2759V95.1565C294.998 94.5205 295.25 94.0039 295.754 93.6066C296.257 93.1695 297.012 92.9504 298.019 92.9504C299.061 92.9504 300.266 93.2289 301.632 93.7853C302.999 94.302 304.401 95.0175 305.839 95.9315L308.968 89.6719C307.385 88.5192 305.642 87.6249 303.736 86.9889C301.866 86.3131 300.014 85.9753 298.18 85.9753C296.706 85.9753 295.322 86.1938 294.028 86.6314C292.769 87.0685 291.654 87.7241 290.683 88.5988C289.748 89.4729 288.993 90.546 288.418 91.818C287.879 93.0502 287.609 94.4807 287.609 96.1102V96.2296C287.609 97.7795 287.861 99.0913 288.364 100.164C288.904 101.237 289.587 102.152 290.414 102.907C291.241 103.622 292.158 104.218 293.164 104.695C294.207 105.133 295.232 105.51 296.239 105.828C297.03 106.106 297.785 106.365 298.504 106.603C299.223 106.842 299.852 107.1 300.391 107.378C300.967 107.617 301.417 107.915 301.74 108.272C302.064 108.63 302.225 109.047 302.225 109.524V109.644C302.225 110.359 301.938 110.935 301.362 111.373C300.823 111.81 299.96 112.028 298.774 112.028C297.407 112.028 295.933 111.71 294.351 111.075C292.805 110.439 291.241 109.485 289.659 108.213L286.153 114.175C288.095 115.844 290.126 117.076 292.248 117.871C294.405 118.626 296.509 119.004 298.558 119.004C300.104 119.004 301.542 118.805 302.873 118.407C304.239 117.97 305.426 117.334 306.433 116.499C307.439 115.665 308.212 114.612 308.752 113.34C309.327 112.028 309.615 110.479 309.615 108.69ZM340.949 113.28L336.148 107.915C335.142 108.948 334.117 109.783 333.074 110.419C332.067 111.015 330.881 111.313 329.514 111.313C328.4 111.313 327.393 111.094 326.494 110.657C325.595 110.18 324.822 109.544 324.175 108.749C323.528 107.955 323.024 107.021 322.665 105.948C322.341 104.874 322.179 103.722 322.179 102.49V102.37C322.179 101.178 322.341 100.065 322.665 99.0319C323.024 97.9588 323.51 97.0247 324.121 96.2296C324.768 95.435 325.505 94.8186 326.332 94.3816C327.195 93.9047 328.148 93.666 329.191 93.666C330.665 93.666 331.887 93.9843 332.858 94.6203C333.865 95.2557 334.836 96.1102 335.771 97.1838L340.787 91.2218C339.42 89.5525 337.838 88.2407 336.04 87.287C334.243 86.3333 331.978 85.8565 329.245 85.8565C327.015 85.8565 324.966 86.2935 323.096 87.1677C321.262 88.0424 319.68 89.2348 318.35 90.7449C317.019 92.2551 315.977 94.0241 315.222 96.0508C314.467 98.0776 314.089 100.224 314.089 102.49V102.609C314.089 104.874 314.467 107.021 315.222 109.047C315.977 111.035 317.019 112.784 318.35 114.294C319.68 115.764 321.262 116.937 323.096 117.811C324.966 118.686 326.979 119.123 329.137 119.123C332.014 119.123 334.351 118.586 336.148 117.513C337.946 116.4 339.546 114.989 340.949 113.28ZM373.271 103.324V103.205C373.271 100.939 372.983 98.7735 372.408 96.7064C371.868 94.6001 371.005 92.7521 369.819 91.1624C368.668 89.5329 367.212 88.2407 365.45 87.287C363.688 86.3333 361.603 85.8565 359.194 85.8565C357.072 85.8565 355.13 86.2935 353.369 87.1677C351.643 88.0424 350.15 89.2348 348.892 90.7449C347.634 92.2551 346.645 94.0241 345.925 96.0508C345.242 98.0776 344.901 100.224 344.901 102.49V102.609C344.901 105.073 345.278 107.319 346.033 109.346C346.788 111.333 347.831 113.062 349.162 114.532C350.528 116.003 352.128 117.135 353.962 117.931C355.832 118.726 357.845 119.123 360.003 119.123C362.627 119.123 364.911 118.606 366.852 117.573C368.794 116.499 370.448 115.029 371.815 113.161L367.122 108.571C365.972 109.723 364.857 110.558 363.778 111.075C362.699 111.591 361.477 111.85 360.11 111.85C358.277 111.85 356.731 111.333 355.472 110.299C354.25 109.226 353.441 107.657 353.045 105.59H373.163C373.199 105.152 373.217 104.775 373.217 104.457C373.253 104.139 373.271 103.761 373.271 103.324ZM365.288 99.9262H352.937C353.261 97.8591 353.944 96.21 354.987 94.9778C356.065 93.7456 357.468 93.1297 359.194 93.1297C360.92 93.1297 362.304 93.7657 363.347 95.0372C364.389 96.2693 365.037 97.8988 365.288 99.9262ZM396.802 95.3353V85.8565C394.357 85.7371 392.416 86.3333 390.977 87.6445C389.539 88.9563 388.406 90.7051 387.579 92.891V86.4521H379.381V118.407H387.579V106.603C387.579 102.748 388.352 99.906 389.898 98.0776C391.481 96.2497 393.638 95.3353 396.371 95.3353H396.802Z" fill="#242424"/>
<g filter="url(#filter0_d)">
<path d="M64.4222 50.5097C64.4222 39.0901 60.3183 28.1384 53.013 20.0635C45.7081 11.9888 35.8003 7.45239 25.4692 7.45239H5.99268V21.8048C5.99268 33.2243 10.0967 44.1761 17.4017 52.2509C24.7069 60.3257 34.6147 64.8623 44.9458 64.8623H64.4222" stroke="#00E88F" stroke-width="15" stroke-linecap="round" stroke-linejoin="round"/>
</g>
<g filter="url(#filter1_d)">
<path d="M64.4224 79.2143C64.4224 67.795 68.5262 56.8431 75.8311 48.7683C83.1364 40.6935 93.0447 36.1572 103.376 36.1572H122.852V43.3334C122.852 54.7529 118.748 65.705 111.444 73.7795C104.138 81.8541 94.2299 86.3907 83.899 86.3907H64.4224" stroke="#00E88F" stroke-width="15" stroke-linecap="round" stroke-linejoin="round"/>
</g>
<g filter="url(#filter2_d)">
<path d="M64.4224 122.272V50.5095" stroke="#00E88F" stroke-width="15" stroke-linecap="round" stroke-linejoin="round"/>
</g>
</g>
<defs>
<filter id="filter0_d" x="-5.50732" y="-0.0476074" width="81.4295" height="80.4099" filterUnits="userSpaceOnUse" color-interpolation-filters="sRGB">
<feFlood flood-opacity="0" result="BackgroundImageFix"/>
<feColorMatrix in="SourceAlpha" type="matrix" values="0 0 0 0 0 0 0 0 0 0 0 0 0 0 0 0 0 0 127 0"/>
<feOffset dy="4"/>
<feGaussianBlur stdDeviation="2"/>
<feColorMatrix type="matrix" values="0 0 0 0 0 0 0 0 0 0 0 0 0 0 0 0 0 0 0.25 0"/>
<feBlend mode="normal" in2="BackgroundImageFix" result="effect1_dropShadow"/>
<feBlend mode="normal" in="SourceGraphic" in2="effect1_dropShadow" result="shape"/>
</filter>
<filter id="filter1_d" x="52.9224" y="28.6572" width="81.4299" height="73.2335" filterUnits="userSpaceOnUse" color-interpolation-filters="sRGB">
<feFlood flood-opacity="0" result="BackgroundImageFix"/>
<feColorMatrix in="SourceAlpha" type="matrix" values="0 0 0 0 0 0 0 0 0 0 0 0 0 0 0 0 0 0 127 0"/>
<feOffset dy="4"/>
<feGaussianBlur stdDeviation="2"/>
<feColorMatrix type="matrix" values="0 0 0 0 0 0 0 0 0 0 0 0 0 0 0 0 0 0 0.25 0"/>
<feBlend mode="normal" in2="BackgroundImageFix" result="effect1_dropShadow"/>
<feBlend mode="normal" in="SourceGraphic" in2="effect1_dropShadow" result="shape"/>
</filter>
<filter id="filter2_d" x="52.9224" y="43.0095" width="23" height="94.7627" filterUnits="userSpaceOnUse" color-interpolation-filters="sRGB">
<feFlood flood-opacity="0" result="BackgroundImageFix"/>
<feColorMatrix in="SourceAlpha" type="matrix" values="0 0 0 0 0 0 0 0 0 0 0 0 0 0 0 0 0 0 127 0"/>
<feOffset dy="4"/>
<feGaussianBlur stdDeviation="2"/>
<feColorMatrix type="matrix" values="0 0 0 0 0 0 0 0 0 0 0 0 0 0 0 0 0 0 0.25 0"/>
<feBlend mode="normal" in2="BackgroundImageFix" result="effect1_dropShadow"/>
<feBlend mode="normal" in="SourceGraphic" in2="effect1_dropShadow" result="shape"/>
</filter>
<clipPath id="clip0">
<rect width="415" height="130" fill="white"/>
</clipPath>
</defs>
</svg>
