<svg width="142" height="148" viewBox="0 0 142 148" fill="none" xmlns="http://www.w3.org/2000/svg">
<path d="M138.7 131.175L138.748 131.334L138.881 131.433C140.48 132.622 141.5 134.445 141.5 136.438V141.062C141.5 144.589 138.377 147.5 134.393 147.5H30.4286C13.8612 147.5 0.5 135.252 0.5 120.25V27.75C0.5 12.7482 13.8612 0.5 30.4286 0.5H134.393C138.377 0.5 141.5 3.41147 141.5 6.9375V104.062C141.5 106.056 140.48 107.877 138.885 109.035L138.748 109.134L138.7 109.296C138.012 111.598 137.681 115.948 137.681 120.236C137.681 124.523 138.012 128.873 138.7 131.175ZM120.89 130H121.455L121.387 129.44C120.789 124.537 120.789 115.963 121.387 111.06L121.455 110.5H120.89H30.4286C24.6182 110.5 19.7857 114.844 19.7857 120.25C19.7857 125.685 24.5865 130 30.4286 130H120.89ZM42.4732 36.5C41.1954 36.5 40.0714 37.462 40.0714 38.7344V44.5156C40.0714 45.788 41.1955 46.75 42.4732 46.75H109.67C110.947 46.75 112.071 45.788 112.071 44.5156V38.7344C112.071 37.462 110.947 36.5 109.67 36.5H42.4732ZM42.4732 55C41.1954 55 40.0714 55.962 40.0714 57.2344V63.0156C40.0714 64.288 41.1955 65.25 42.4732 65.25H109.67C110.947 65.25 112.071 64.288 112.071 63.0156V57.2344C112.071 55.962 110.947 55 109.67 55H42.4732Z" fill="#642E3D" stroke="#242424"/>
</svg>
