<svg width="163" height="161" viewBox="0 0 163 161" fill="none" xmlns="http://www.w3.org/2000/svg">
<path d="M52.4671 57.0026L52.467 57.0026C51.0567 55.9464 50.7409 53.9864 51.7372 52.5412C55.4665 47.1323 59.6889 42.9333 64.8054 40.0838C69.9199 37.2354 75.9578 35.7188 83.3446 35.7188C91.0343 35.7188 98.9983 38.6862 105.036 43.6134C111.071 48.539 115.142 55.3881 115.142 63.1422C115.142 68.3141 113.731 72.1879 111.629 75.2193C109.521 78.2592 106.701 80.4776 103.845 82.3065C102.45 83.1994 101.054 83.995 99.7298 84.75L99.6336 84.8048C98.2863 85.5728 97.0085 86.3036 95.9094 87.0437C93.7419 88.5034 92.0862 90.1162 92.0862 92.3432V94.3359C92.0862 96.1379 90.6054 97.6094 88.7659 97.6094H74.2338C72.3943 97.6094 70.9135 96.1379 70.9135 94.3359V91.6131C70.9135 80.9405 78.8837 76.533 85.3773 72.942C85.5199 72.8632 85.6618 72.7847 85.8029 72.7066C88.5866 71.1651 90.8964 69.837 92.5037 68.3637C94.136 66.8673 95.0779 65.1903 95.0779 62.968C95.0779 60.0203 93.1743 57.6296 90.6384 56.0022C88.0977 54.3718 84.8373 53.4454 81.9123 53.4454C78.1315 53.4454 75.3339 54.3327 72.8692 56.0039C70.426 57.6605 68.3348 60.0724 65.9411 63.0564C64.8185 64.4557 62.7669 64.7167 61.3251 63.6369C61.3251 63.6369 61.3251 63.6369 61.3251 63.6369L52.4671 57.0026ZM3.04688 80.5C3.04688 37.7279 38.1688 3.01562 81.5 3.01562C124.831 3.01562 159.953 37.7279 159.953 80.5C159.953 123.297 124.831 157.984 81.5 157.984C38.1687 157.984 3.04688 123.297 3.04688 80.5ZM17.3281 80.5C17.3281 115.551 46.0409 143.891 81.5 143.891C116.971 143.891 145.672 115.538 145.672 80.5C145.672 45.4618 116.946 17.1094 81.5 17.1094C46.042 17.1094 17.3281 45.4726 17.3281 80.5ZM94.3711 115.719C94.3711 122.719 88.6026 128.426 81.5 128.426C74.3974 128.426 68.6289 122.719 68.6289 115.719C68.6289 108.718 74.3974 103.012 81.5 103.012C88.6026 103.012 94.3711 108.718 94.3711 115.719Z" fill="#642E3D" stroke="#242424"/>
</svg>
