<svg width="43" height="49" viewBox="0 0 43 49" fill="none" xmlns="http://www.w3.org/2000/svg">
<g clip-path="url(#clip0)">
<g filter="url(#filter0_i)">
<path d="M21.5001 22.3795C20.4876 22.3799 19.4979 22.6698 18.6562 23.2127C17.8146 23.7557 17.1586 24.5271 16.7714 25.4296C16.3842 26.3321 16.2831 27.3251 16.4809 28.283C16.6786 29.241 17.1664 30.1208 17.8825 30.8114C18.5986 31.5019 19.5108 31.9721 20.5039 32.1625C21.497 32.3529 22.5263 32.255 23.4616 31.8811C24.397 31.5073 25.1965 30.8742 25.759 30.0621C26.3215 29.2499 26.6217 28.2951 26.6217 27.3184C26.6207 26.0085 26.0807 24.7525 25.1204 23.8265C24.16 22.9004 22.8579 22.38 21.5001 22.3795ZM33.47 18.5832C33.2094 17.946 32.8158 17.3673 32.3137 16.8829C31.8116 16.3986 31.2117 16.0189 30.5512 15.7675C28.5356 14.9999 23.7365 15.1721 21.5001 15.1721C19.2637 15.1721 14.4693 14.9934 12.448 15.7675C11.7874 16.0189 11.1875 16.3986 10.6854 16.8829C10.1833 17.3673 9.78977 17.946 9.52913 18.5832C8.7344 20.5276 8.91197 25.1619 8.91197 27.3175C8.91197 29.473 8.7344 34.1017 9.53297 36.0526C9.79361 36.6898 10.1872 37.2685 10.6893 37.7529C11.1914 38.2373 11.7913 38.6169 12.4518 38.8684C14.4674 39.636 19.2666 39.4637 21.5039 39.4637C23.7413 39.4637 28.5337 39.6424 30.555 38.8684C31.2156 38.6169 31.8155 38.2373 32.3176 37.7529C32.8197 37.2685 33.2132 36.6898 33.4739 36.0526C34.2753 34.1082 34.091 29.4739 34.091 27.3184C34.091 25.1628 34.2753 20.535 33.4739 18.5841L33.47 18.5832ZM21.5001 34.911C19.9434 34.911 18.4217 34.4657 17.1274 33.6314C15.8331 32.7971 14.8243 31.6113 14.2286 30.2239C13.6329 28.8366 13.477 27.31 13.7807 25.8371C14.0844 24.3643 14.834 23.0114 15.9347 21.9496C17.0355 20.8878 18.4379 20.1646 19.9646 19.8717C21.4913 19.5787 23.0738 19.7291 24.512 20.3037C25.9501 20.8784 27.1794 21.8516 28.0442 23.1002C28.909 24.3488 29.3706 25.8167 29.3706 27.3184C29.3719 28.3158 29.1692 29.3036 28.7741 30.2254C28.379 31.1471 27.7993 31.9846 27.0682 32.6899C26.3371 33.3951 25.469 33.9544 24.5135 34.3355C23.558 34.7166 22.534 34.9122 21.5001 34.911ZM29.695 21.1795C29.3317 21.1797 28.9764 21.0759 28.6741 20.8813C28.3719 20.6866 28.1363 20.4099 27.9971 20.0861C27.8579 19.7623 27.8214 19.4059 27.8922 19.0621C27.9629 18.7183 28.1378 18.4024 28.3947 18.1544C28.6516 17.9065 28.9789 17.7376 29.3353 17.6692C29.6917 17.6007 30.0611 17.6357 30.3969 17.7699C30.7326 17.904 31.0196 18.1311 31.2215 18.4226C31.4234 18.714 31.5312 19.0567 31.5312 19.4073C31.5322 19.6401 31.4856 19.8707 31.3939 20.0861C31.3023 20.3015 31.1675 20.4973 30.9973 20.6623C30.8271 20.8273 30.6247 20.9582 30.4019 21.0476C30.1791 21.137 29.9402 21.1831 29.6989 21.1832L29.695 21.1795ZM38.393 6.57764H4.60716C3.38526 6.57764 2.21341 7.04589 1.3494 7.87938C0.485395 8.71288 0 9.84334 0 11.0221L0 43.6147C0 44.7934 0.485395 45.9239 1.3494 46.7574C2.21341 47.5909 3.38526 48.0591 4.60716 48.0591H38.393C39.6149 48.0591 40.7867 47.5909 41.6507 46.7574C42.5147 45.9239 43.0001 44.7934 43.0001 43.6147V11.0221C43.0001 9.84334 42.5147 8.71288 41.6507 7.87938C40.7867 7.04589 39.6149 6.57764 38.393 6.57764ZM36.7497 33.4295C36.6259 35.8026 36.0644 37.9054 34.2686 39.6332C32.4728 41.361 30.2949 41.9137 27.8378 42.0267C25.3029 42.1647 17.703 42.1647 15.1681 42.0267C12.7081 41.9073 10.536 41.3647 8.73728 39.6332C6.93857 37.9017 6.37323 35.798 6.25613 33.4295C6.11312 30.9832 6.11312 23.6508 6.25613 21.2073C6.37995 18.8341 6.93473 16.7313 8.73728 15.0036C10.5398 13.2758 12.7177 12.7295 15.1681 12.6165C17.703 12.4786 25.3029 12.4786 27.8378 12.6165C30.2978 12.736 32.4766 13.2786 34.2686 15.01C36.0606 16.7415 36.6326 18.8452 36.7497 21.2184C36.8928 23.6554 36.8928 30.9813 36.7497 33.4295Z" fill="#FAFAFA"/>
</g>
<path d="M32.0312 19.4059C32.0309 18.9528 31.8914 18.5116 31.6325 18.1379C31.3735 17.764 31.0074 17.4753 30.5824 17.3055C30.1575 17.1358 29.6909 17.0917 29.241 17.1781C28.791 17.2646 28.3754 17.4782 28.0475 17.7947C27.7194 18.1113 27.4939 18.517 27.4024 18.9613C27.3109 19.4057 27.3583 19.8662 27.5377 20.2836L27.9971 20.0861L27.5377 20.2836C27.7171 20.7007 28.0193 21.0543 28.4034 21.3016C28.728 21.5107 29.0995 21.6365 29.4836 21.6703L29.4971 21.6833L29.6991 21.6832C30.0038 21.683 30.3059 21.6249 30.5881 21.5116C30.8704 21.3984 31.1278 21.232 31.3453 21.0213C31.5628 20.8105 31.736 20.5594 31.854 20.2818C31.972 20.0045 32.0324 19.7068 32.0312 19.4059ZM32.0312 19.4059C32.0312 19.4056 32.0312 19.4054 32.0312 19.4051L31.5312 19.4073H32.0312C32.0312 19.4068 32.0312 19.4064 32.0312 19.4059ZM33.0072 18.7725L33.065 18.9136C33.3885 19.813 33.5316 21.2964 33.5833 22.8907C33.6216 24.0753 33.6092 25.2647 33.5989 26.2478C33.5948 26.6425 33.591 27.0039 33.591 27.3184C33.591 27.6328 33.5948 27.9943 33.5989 28.3891C33.6092 29.3727 33.6216 30.5632 33.5833 31.7485C33.5288 33.4293 33.3729 34.9855 33.0116 35.8621L33.0111 35.8633C32.7771 36.4354 32.4232 36.9562 31.9704 37.3931C31.5176 37.8299 30.9754 38.1734 30.3772 38.4011L30.3762 38.4014C29.456 38.7538 27.8352 38.9042 26.0954 38.9566C24.8684 38.9935 23.6353 38.9814 22.6164 38.9714C22.2061 38.9674 21.8304 38.9637 21.5039 38.9637C21.1838 38.9637 20.8162 38.9672 20.4147 38.9709C19.3908 38.9804 18.1468 38.9919 16.91 38.9541C15.1691 38.901 13.5476 38.7507 12.6297 38.4011L12.6297 38.4011C12.0314 38.1734 11.4893 37.8299 11.0364 37.3931C10.5836 36.9562 10.2297 36.4354 9.99575 35.8633L9.99571 35.8632C9.63522 34.9825 9.47847 33.4251 9.42273 31.7452C9.38308 30.5503 9.39494 29.3496 9.40469 28.3616C9.40849 27.9771 9.41197 27.6247 9.41197 27.3175C9.41197 27.0093 9.40847 26.6556 9.40465 26.2695C9.39487 25.2817 9.38299 24.0816 9.42226 22.8876C9.47752 21.2069 9.63335 19.6499 9.99192 18.7725C10.2259 18.2004 10.5798 17.6796 11.0326 17.2428C11.4854 16.8059 12.0276 16.4625 12.6258 16.2347L12.6268 16.2344C13.547 15.882 15.1682 15.7316 16.9084 15.6793C18.1358 15.6423 19.3691 15.6544 20.388 15.6644C20.7982 15.6684 21.1737 15.6721 21.5001 15.6721C21.82 15.6721 22.1875 15.6687 22.5888 15.6649C23.6125 15.6554 24.8564 15.6439 26.0931 15.6817C27.8339 15.7349 29.4554 15.8852 30.3733 16.2347L30.3733 16.2347C30.9716 16.4625 31.5137 16.8059 31.9666 17.2428C32.4194 17.6796 32.7733 18.2004 33.0072 18.7725ZM18.9273 23.6329C19.6872 23.1427 20.5826 22.8799 21.5001 22.8795C22.731 22.88 23.908 23.352 24.7733 24.1864C25.638 25.0203 26.1208 26.1473 26.1217 27.3188C26.1216 28.1924 25.8531 29.048 25.3479 29.7774C24.8425 30.5072 24.1222 31.0787 23.2761 31.4169C22.4298 31.7551 21.4976 31.8439 20.598 31.6714C19.6985 31.499 18.8746 31.0735 18.2296 30.4514C17.5847 29.8296 17.1476 29.0394 16.9706 28.1819C16.7936 27.3246 16.8839 26.4357 17.2309 25.6268C17.5781 24.8176 18.1674 24.123 18.9273 23.6329ZM16.8565 34.0516C18.2324 34.9385 19.8481 35.4109 21.4995 35.411L21.5001 34.911C22.534 34.9122 23.558 34.7166 24.5135 34.3355C25.469 33.9544 26.3371 33.3951 27.0682 32.6899C27.7993 31.9846 28.379 31.1471 28.7741 30.2254C29.1692 29.3036 29.3719 28.3158 29.3706 27.3184H29.8706C29.8706 27.3182 29.8706 27.318 29.8706 27.3177C29.8705 25.7133 29.3772 24.1465 28.4552 22.8155C27.5333 21.4845 26.2249 20.4498 24.6975 19.8394C23.1702 19.2291 21.4906 19.0697 19.8704 19.3806C18.25 19.6916 16.7593 20.4594 15.5876 21.5898C14.4157 22.7203 13.6154 24.1629 13.291 25.7362C12.9666 27.3096 13.1333 28.9403 13.7692 30.4212C14.405 31.9019 15.4803 33.1646 16.8565 34.0516ZM4.60716 7.07764H38.393C39.4879 7.07764 40.5346 7.49742 41.3036 8.23924C42.0719 8.98046 42.5001 9.98187 42.5001 11.0221V43.6147C42.5001 44.6549 42.0719 45.6563 41.3036 46.3975C40.5346 47.1393 39.4879 47.5591 38.393 47.5591H4.60716C3.51219 47.5591 2.46552 47.1393 1.69655 46.3975C0.928183 45.6563 0.5 44.6549 0.5 43.6147V11.0221C0.5 9.98187 0.928183 8.98046 1.69655 8.23924C2.46552 7.49742 3.51219 7.07764 4.60716 7.07764ZM34.6153 39.9935C36.5381 38.1435 37.1216 35.8957 37.249 33.4571L36.7497 33.4295C36.8928 30.9813 36.8928 23.6554 36.7497 21.2184L37.2491 21.1937C37.2491 21.193 37.2491 21.1922 37.249 21.1915C37.1283 18.7501 36.5333 16.503 34.616 14.6505C32.7007 12.7998 30.3814 12.2396 27.8635 12.1172C25.3097 11.9784 17.6976 11.9783 15.143 12.1171C12.6326 12.2331 10.3161 12.7977 8.39129 14.6426C6.46054 16.4933 5.88427 18.7421 5.7569 21.1796C5.61288 23.6434 5.61287 30.989 5.75686 33.4564C5.87757 35.8922 6.46542 38.1403 8.39052 39.9934C10.3121 41.8432 12.624 42.4036 15.1428 42.5261C17.6968 42.6649 25.3078 42.6649 27.8626 42.5261C30.3805 42.4101 32.6973 41.8388 34.6153 39.9935Z" stroke="#27BA81"/>
</g>
<defs>
<filter id="filter0_i" x="0" y="6.57764" width="43.0001" height="45.4815" filterUnits="userSpaceOnUse" color-interpolation-filters="sRGB">
<feFlood flood-opacity="0" result="BackgroundImageFix"/>
<feBlend mode="normal" in="SourceGraphic" in2="BackgroundImageFix" result="shape"/>
<feColorMatrix in="SourceAlpha" type="matrix" values="0 0 0 0 0 0 0 0 0 0 0 0 0 0 0 0 0 0 127 0" result="hardAlpha"/>
<feOffset dy="4"/>
<feGaussianBlur stdDeviation="2"/>
<feComposite in2="hardAlpha" operator="arithmetic" k2="-1" k3="1"/>
<feColorMatrix type="matrix" values="0 0 0 0 0 0 0 0 0 0 0 0 0 0 0 0 0 0 0.25 0"/>
<feBlend mode="normal" in2="shape" result="effect1_innerShadow"/>
</filter>
<clipPath id="clip0">
<rect width="43.0001" height="47.4074" fill="white" transform="translate(0 0.770264)"/>
</clipPath>
</defs>
</svg>
