<svg width="98" height="97" viewBox="0 0 98 97" fill="none" xmlns="http://www.w3.org/2000/svg">
<path d="M48.9998 37.1245C48.9998 28.0741 45.7689 19.3944 40.0177 12.9948C34.2668 6.59524 26.4666 3 18.3333 3H3V14.3748C3 23.4252 6.231 32.105 11.982 38.5045C17.7331 44.9041 25.5332 48.4995 33.6667 48.4995H48.9998" stroke="#00E88F" stroke-width="5" stroke-linecap="round" stroke-linejoin="round"/>
<path d="M49 59.8737C49 50.8235 52.2309 42.1436 57.9817 35.7441C63.733 29.3444 71.5338 25.7493 79.6672 25.7493H95V31.4366C95 40.4871 91.7687 49.167 86.0185 55.5664C80.2674 61.9659 72.4667 65.5612 64.3334 65.5612H49" stroke="#00E88F" stroke-width="5" stroke-linecap="round" stroke-linejoin="round"/>
<path d="M49 94.0001V37.1252" stroke="#00E88F" stroke-width="5" stroke-linecap="round" stroke-linejoin="round"/>
</svg>
