<svg width="108" height="108" viewBox="0 0 108 108" fill="none" xmlns="http://www.w3.org/2000/svg">
<path d="M3.85714 93.0714H104.143C105.033 93.0714 105.887 93.4251 106.517 94.0547C107.146 94.6843 107.5 95.5382 107.5 96.4286V104.143C107.5 105.033 107.146 105.887 106.517 106.517C105.887 107.146 105.033 107.5 104.143 107.5H3.85714C2.96677 107.5 2.11287 107.146 1.48328 106.517C0.853699 105.887 0.5 105.033 0.5 104.143V96.4286C0.5 95.5382 0.853699 94.6843 1.48328 94.0547C2.11287 93.4251 2.96677 93.0714 3.85714 93.0714ZM3.85714 62.2143H104.143C105.033 62.2143 105.887 62.568 106.517 63.1976C107.146 63.8272 107.5 64.6811 107.5 65.5714V73.2857C107.5 74.1761 107.146 75.03 106.517 75.6596C105.887 76.2892 105.033 76.6429 104.143 76.6429H3.85714C2.96677 76.6429 2.11287 76.2892 1.48328 75.6596C0.853699 75.03 0.5 74.1761 0.5 73.2857V65.5714C0.5 64.6811 0.853698 63.8272 1.48328 63.1976C2.11287 62.568 2.96677 62.2143 3.85714 62.2143ZM3.85714 31.3571H104.143C105.033 31.3571 105.887 31.7108 106.517 32.3404C107.146 32.97 107.5 33.8239 107.5 34.7143V42.4286C107.5 43.3189 107.146 44.1728 106.517 44.8024C105.887 45.432 105.033 45.7857 104.143 45.7857H3.85714C2.96677 45.7857 2.11287 45.432 1.48328 44.8024C0.853698 44.1728 0.5 43.3189 0.5 42.4286V34.7143C0.5 33.8239 0.853698 32.97 1.48328 32.3404C2.11287 31.7108 2.96677 31.3571 3.85714 31.3571ZM3.85714 0.5H104.143C105.033 0.5 105.887 0.853698 106.517 1.48328C107.146 2.11287 107.5 2.96677 107.5 3.85714V11.5714C107.5 12.4618 107.146 13.3157 106.517 13.9453C105.887 14.5749 105.033 14.9286 104.143 14.9286H3.85714C2.96677 14.9286 2.11287 14.5749 1.48328 13.9453C0.853698 13.3157 0.5 12.4618 0.5 11.5714V3.85714C0.5 2.96677 0.853698 2.11287 1.48328 1.48328C2.11287 0.853698 2.96677 0.5 3.85714 0.5Z" fill="#27BA81" stroke="black"/>
</svg>
