<svg width="89" height="92" viewBox="0 0 89 92" fill="none" xmlns="http://www.w3.org/2000/svg">
<path d="M51.9167 24.4375V0H5.5625C2.47995 0 0 1.92266 0 4.3125V87.6875C0 90.0773 2.47995 92 5.5625 92H83.4375C86.5201 92 89 90.0773 89 87.6875V28.75H57.4792C54.4198 28.75 51.9167 26.8094 51.9167 24.4375ZM66.75 66.8438C66.75 68.0297 65.4984 69 63.9687 69H25.0312C23.5016 69 22.25 68.0297 22.25 66.8438V65.4062C22.25 64.2203 23.5016 63.25 25.0312 63.25H63.9687C65.4984 63.25 66.75 64.2203 66.75 65.4062V66.8438ZM66.75 55.3438C66.75 56.5297 65.4984 57.5 63.9687 57.5H25.0312C23.5016 57.5 22.25 56.5297 22.25 55.3438V53.9062C22.25 52.7203 23.5016 51.75 25.0312 51.75H63.9687C65.4984 51.75 66.75 52.7203 66.75 53.9062V55.3438ZM66.75 42.4062V43.8438C66.75 45.0297 65.4984 46 63.9687 46H25.0312C23.5016 46 22.25 45.0297 22.25 43.8438V42.4062C22.25 41.2203 23.5016 40.25 25.0312 40.25H63.9687C65.4984 40.25 66.75 41.2203 66.75 42.4062ZM89 21.9039V23H59.3333V0H60.7471C62.2305 0 63.6443 0.449219 64.6872 1.25781L87.3776 18.8672C88.4206 19.6758 89 20.7719 89 21.9039Z" fill="#27BA81"/>
</svg>
