<svg width="53" height="56" viewBox="0 0 53 56" fill="none" xmlns="http://www.w3.org/2000/svg">
<path d="M50.603 39.4151L39.413 34.2382C38.935 34.0182 38.405 33.9751 37.903 34.1141C37.401 34.2531 36.954 34.5681 36.629 35.0111L31.732 41.6712C23.952 37.7071 17.667 30.8962 13.956 22.4062L19.957 16.9421C20.357 16.5801 20.638 16.0851 20.759 15.5321C20.879 14.9781 20.832 14.3971 20.624 13.8751L15.763 1.65615C15.536 1.09415 15.137 0.636145 14.635 0.362145C14.133 0.088145 13.56 0.0141524 13.014 0.154152L2.672 2.84614C2.146 2.98314 1.67897 3.31215 1.34497 3.77915C1.01197 4.24615 0.832003 4.82315 0.836003 5.41715C1.019 33.4712 21.875 56.0312 47.384 55.8652C47.925 55.8622 48.449 55.6572 48.87 55.2851C49.291 54.9131 49.584 54.3951 49.702 53.8151L52.018 42.4251C52.138 41.8211 52.062 41.1912 51.804 40.6412C51.545 40.0922 51.121 39.6581 50.603 39.4151Z" fill="#642E3D"/>
</svg>
